<?xml version="1.0" encoding="utf-8"?>
<!-- Generator: Adobe Illustrator 24.1.3, SVG Export Plug-In . SVG Version: 6.00 Build 0)  -->
<svg version="1.1" id="Layer_1" xmlns="http://www.w3.org/2000/svg" xmlns:xlink="http://www.w3.org/1999/xlink" x="0px" y="0px"
	 viewBox="0 0 1354.1 940.8" style="enable-background:new 0 0 1354.1 940.8;" xml:space="preserve">
<style type="text/css">
	.st0{opacity:0.5;}
	.st1{fill:#E7A2A5;}
	.st2{opacity:0.56;fill:url(#SVGID_1_);enable-background:new    ;}
	.st3{fill:#FF4654;}
	.st4{opacity:0.16;fill:url(#SVGID_2_);enable-background:new    ;}
	.st5{opacity:0.18;fill:url(#SVGID_3_);enable-background:new    ;}
	.st6{fill:url(#SVGID_4_);}
	.st7{fill:url(#SVGID_5_);}
	.st8{fill:#2A4E7A;}
	.st9{fill:#1A3A59;}
	.st10{fill:url(#SVGID_6_);}
	.st11{fill:#FAC832;}
	.st12{opacity:0.4;fill:url(#SVGID_7_);enable-background:new    ;}
	.st13{fill:#3C414C;}
	.st14{fill:#2F353F;}
	.st15{fill:url(#SVGID_8_);}
	.st16{opacity:0.94;fill:#E5F1F9;enable-background:new    ;}
	.st17{fill:url(#SVGID_9_);}
	.st18{fill:#EAEAEF;}
	.st19{fill:#E0E0E0;}
	.st20{fill:#1A1A1A;}
	.st21{fill:url(#SVGID_10_);}
	.st22{fill:#F7979B;}
	.st23{fill:#66ADDF;}
	.st24{opacity:0.5;fill:url(#SVGID_11_);enable-background:new    ;}
	.st25{fill:url(#SVGID_12_);}
	.st26{clip-path:url(#SVGID_14_);}
	.st27{fill:#D7EAF7;}
	.st28{fill:#FFFFFF;}
	.st29{fill:#E5F1F9;}
	.st30{fill:#6EA8CC;}
	.st31{fill:#0061A6;}
	.st32{fill:#3391D4;}
	.st33{fill:#7477E7;}
	.st34{fill:#F25258;}
	.st35{fill:#E6B82E;}
	.st36{opacity:0.4;fill:url(#SVGID_15_);enable-background:new    ;}
	.st37{fill:#343435;}
	.st38{fill:#474749;}
	.st39{fill:url(#SVGID_16_);}
	.st40{opacity:0.8;fill:#7477E7;enable-background:new    ;}
	.st41{opacity:0.8;fill:#FAC832;enable-background:new    ;}
	.st42{opacity:0.8;fill:#F57579;enable-background:new    ;}
	.st43{opacity:0.8;fill:#0076C9;enable-background:new    ;}
	.st44{fill:#0076C9;}
	.st45{fill:#F7B58E;}
	.st46{fill:#FFBE8B;}
	.st47{fill:#6B64A0;}
	.st48{fill:#453C87;}
	.st49{opacity:0.3;fill:url(#SVGID_17_);enable-background:new    ;}
	.st50{fill:#003159;}
	.st51{fill:#212B53;}
	.st52{fill:#053C5E;}
	.st53{fill:url(#SVGID_18_);}
	.st54{fill:#2C355B;}
	.st55{fill:#E54854;}
	.st56{fill:#FF595F;}
	.st57{fill:#353E70;}
	.st58{fill:#281718;}
	.st59{fill:url(#SVGID_19_);}
	.st60{fill:#4D4D4D;}
	.st61{fill:#808080;}
	.st62{fill:#0074BC;}
	.st63{fill:#1F2E3B;}
	.st64{fill:#393F5C;}
	.st65{fill:#232049;}
	.st66{fill:url(#SVGID_20_);}
	.st67{fill:#F57579;}
	.st68{fill:#394577;}
	.st69{fill:#DE4B50;}
	.st70{opacity:0.18;fill:#CF464B;enable-background:new    ;}
	.st71{fill:url(#SVGID_21_);}
</style>
<g class="st0">
	<circle class="st1" cx="796.3" cy="230.2" r="2.5"/>
	<circle class="st1" cx="808.4" cy="230.2" r="2.5"/>
	<circle class="st1" cx="820.5" cy="230.2" r="2.5"/>
	<circle class="st1" cx="832.6" cy="230.2" r="2.5"/>
	<circle class="st1" cx="844.6" cy="230.2" r="2.5"/>
	<circle class="st1" cx="856.7" cy="230.2" r="2.5"/>
	<circle class="st1" cx="868.8" cy="230.2" r="2.5"/>
	<circle class="st1" cx="880.9" cy="230.2" r="2.5"/>
	<circle class="st1" cx="893" cy="230.2" r="2.5"/>
	<circle class="st1" cx="905.1" cy="230.2" r="2.5"/>
	<circle class="st1" cx="917.1" cy="230.2" r="2.5"/>
	<circle class="st1" cx="929.2" cy="230.2" r="2.5"/>
	<circle class="st1" cx="941.3" cy="230.2" r="2.5"/>
	<circle class="st1" cx="953.4" cy="230.2" r="2.5"/>
	<circle class="st1" cx="802.2" cy="222.3" r="2.5"/>
	<circle class="st1" cx="814.3" cy="222.3" r="2.5"/>
	<circle class="st1" cx="826.4" cy="222.3" r="2.5"/>
	<circle class="st1" cx="838.5" cy="222.3" r="2.5"/>
	<circle class="st1" cx="850.6" cy="222.3" r="2.5"/>
	<circle class="st1" cx="862.6" cy="222.3" r="2.5"/>
	<circle class="st1" cx="874.7" cy="222.3" r="2.5"/>
	<circle class="st1" cx="886.8" cy="222.3" r="2.5"/>
	<circle class="st1" cx="898.9" cy="222.3" r="2.5"/>
	<circle class="st1" cx="911" cy="222.3" r="2.5"/>
	<circle class="st1" cx="923.1" cy="222.3" r="2.5"/>
	<circle class="st1" cx="935.1" cy="222.3" r="2.5"/>
	<circle class="st1" cx="947.2" cy="222.3" r="2.5"/>
	<circle class="st1" cx="959.3" cy="222.3" r="2.5"/>
	<circle class="st1" cx="796.3" cy="214.1" r="2.5"/>
	<circle class="st1" cx="808.4" cy="214.1" r="2.5"/>
	<circle class="st1" cx="820.5" cy="214.1" r="2.5"/>
	<circle class="st1" cx="832.6" cy="214.1" r="2.5"/>
	<circle class="st1" cx="844.6" cy="214.1" r="2.5"/>
	<circle class="st1" cx="856.7" cy="214.1" r="2.5"/>
	<circle class="st1" cx="868.8" cy="214.1" r="2.5"/>
	<circle class="st1" cx="880.9" cy="214.1" r="2.5"/>
	<circle class="st1" cx="893" cy="214.1" r="2.5"/>
	<circle class="st1" cx="905.1" cy="214.1" r="2.5"/>
	<circle class="st1" cx="917.1" cy="214.1" r="2.5"/>
	<circle class="st1" cx="929.2" cy="214.1" r="2.5"/>
	<circle class="st1" cx="941.3" cy="214.1" r="2.5"/>
	<circle class="st1" cx="953.4" cy="214.1" r="2.5"/>
	<circle class="st1" cx="802.2" cy="206.2" r="2.5"/>
	<circle class="st1" cx="814.3" cy="206.2" r="2.5"/>
	<circle class="st1" cx="826.4" cy="206.2" r="2.5"/>
	<circle class="st1" cx="838.5" cy="206.2" r="2.5"/>
	<circle class="st1" cx="850.6" cy="206.2" r="2.5"/>
	<circle class="st1" cx="862.6" cy="206.2" r="2.5"/>
	<circle class="st1" cx="874.7" cy="206.2" r="2.5"/>
	<circle class="st1" cx="886.8" cy="206.2" r="2.5"/>
	<circle class="st1" cx="898.9" cy="206.2" r="2.5"/>
	<circle class="st1" cx="911" cy="206.2" r="2.5"/>
	<circle class="st1" cx="923.1" cy="206.2" r="2.5"/>
	<circle class="st1" cx="935.1" cy="206.2" r="2.5"/>
	<circle class="st1" cx="947.2" cy="206.2" r="2.5"/>
	<circle class="st1" cx="959.3" cy="206.2" r="2.5"/>
	<circle class="st1" cx="796.3" cy="198" r="2.5"/>
	<circle class="st1" cx="808.4" cy="198" r="2.5"/>
	<circle class="st1" cx="820.5" cy="198" r="2.5"/>
	<circle class="st1" cx="832.6" cy="198" r="2.5"/>
	<circle class="st1" cx="844.6" cy="198" r="2.5"/>
	<circle class="st1" cx="856.7" cy="198" r="2.5"/>
	<circle class="st1" cx="868.8" cy="198" r="2.5"/>
	<circle class="st1" cx="880.9" cy="198" r="2.5"/>
	<circle class="st1" cx="893" cy="198" r="2.5"/>
	<circle class="st1" cx="905.1" cy="198" r="2.5"/>
	<circle class="st1" cx="917.1" cy="198" r="2.5"/>
	<circle class="st1" cx="929.2" cy="198" r="2.5"/>
	<circle class="st1" cx="941.3" cy="198" r="2.5"/>
	<circle class="st1" cx="953.4" cy="198" r="2.5"/>
	<circle class="st1" cx="802.2" cy="190" r="2.5"/>
	<circle class="st1" cx="814.3" cy="190" r="2.5"/>
	<circle class="st1" cx="826.4" cy="190" r="2.5"/>
	<circle class="st1" cx="838.5" cy="190" r="2.5"/>
	<circle class="st1" cx="850.6" cy="190" r="2.5"/>
	<circle class="st1" cx="862.6" cy="190" r="2.5"/>
	<circle class="st1" cx="874.7" cy="190" r="2.5"/>
	<circle class="st1" cx="886.8" cy="190" r="2.5"/>
	<circle class="st1" cx="898.9" cy="190" r="2.5"/>
	<circle class="st1" cx="911" cy="190" r="2.5"/>
	<circle class="st1" cx="923.1" cy="190" r="2.5"/>
	<circle class="st1" cx="935.1" cy="190" r="2.5"/>
	<circle class="st1" cx="947.2" cy="190" r="2.5"/>
	<circle class="st1" cx="959.3" cy="190" r="2.5"/>
	<circle class="st1" cx="796.3" cy="181.8" r="2.5"/>
	<circle class="st1" cx="808.4" cy="181.8" r="2.5"/>
	<circle class="st1" cx="820.5" cy="181.8" r="2.5"/>
	<circle class="st1" cx="832.6" cy="181.8" r="2.5"/>
	<circle class="st1" cx="844.6" cy="181.8" r="2.5"/>
	<circle class="st1" cx="856.7" cy="181.8" r="2.5"/>
	<circle class="st1" cx="868.8" cy="181.8" r="2.5"/>
	<circle class="st1" cx="880.9" cy="181.8" r="2.5"/>
	<circle class="st1" cx="893" cy="181.8" r="2.5"/>
	<circle class="st1" cx="905.1" cy="181.8" r="2.5"/>
	<circle class="st1" cx="917.1" cy="181.8" r="2.5"/>
	<circle class="st1" cx="929.2" cy="181.8" r="2.5"/>
	<circle class="st1" cx="941.3" cy="181.8" r="2.5"/>
	<circle class="st1" cx="953.4" cy="181.8" r="2.5"/>
	<circle class="st1" cx="802.2" cy="173.9" r="2.5"/>
	<circle class="st1" cx="814.3" cy="173.9" r="2.5"/>
	<circle class="st1" cx="826.4" cy="173.9" r="2.5"/>
	<circle class="st1" cx="838.5" cy="173.9" r="2.5"/>
	<circle class="st1" cx="850.6" cy="173.9" r="2.5"/>
	<circle class="st1" cx="862.6" cy="173.9" r="2.5"/>
	<circle class="st1" cx="874.7" cy="173.9" r="2.5"/>
	<circle class="st1" cx="886.8" cy="173.9" r="2.5"/>
	<circle class="st1" cx="898.9" cy="173.9" r="2.5"/>
	<circle class="st1" cx="911" cy="173.9" r="2.5"/>
	<circle class="st1" cx="923.1" cy="173.9" r="2.5"/>
	<circle class="st1" cx="935.1" cy="173.9" r="2.5"/>
	<circle class="st1" cx="947.2" cy="173.9" r="2.5"/>
	<circle class="st1" cx="959.3" cy="173.9" r="2.5"/>
	<circle class="st1" cx="796.3" cy="165.7" r="2.5"/>
	<circle class="st1" cx="808.4" cy="165.7" r="2.5"/>
	<circle class="st1" cx="820.5" cy="165.7" r="2.5"/>
	<circle class="st1" cx="832.6" cy="165.7" r="2.5"/>
	<circle class="st1" cx="844.6" cy="165.7" r="2.5"/>
	<circle class="st1" cx="856.7" cy="165.7" r="2.5"/>
	<circle class="st1" cx="868.8" cy="165.7" r="2.5"/>
	<circle class="st1" cx="880.9" cy="165.7" r="2.5"/>
	<circle class="st1" cx="893" cy="165.7" r="2.5"/>
	<circle class="st1" cx="905.1" cy="165.7" r="2.5"/>
	<circle class="st1" cx="917.1" cy="165.7" r="2.5"/>
	<circle class="st1" cx="929.2" cy="165.7" r="2.5"/>
	<circle class="st1" cx="941.3" cy="165.7" r="2.5"/>
	<circle class="st1" cx="953.4" cy="165.7" r="2.5"/>
	<circle class="st1" cx="802.2" cy="157.8" r="2.5"/>
	<circle class="st1" cx="814.3" cy="157.8" r="2.5"/>
	<circle class="st1" cx="826.4" cy="157.8" r="2.5"/>
	<circle class="st1" cx="838.5" cy="157.8" r="2.5"/>
	<circle class="st1" cx="850.6" cy="157.8" r="2.5"/>
	<circle class="st1" cx="862.6" cy="157.8" r="2.5"/>
	<circle class="st1" cx="874.7" cy="157.8" r="2.5"/>
	<circle class="st1" cx="886.8" cy="157.8" r="2.5"/>
	<circle class="st1" cx="898.9" cy="157.8" r="2.5"/>
	<circle class="st1" cx="911" cy="157.8" r="2.5"/>
	<circle class="st1" cx="923.1" cy="157.8" r="2.5"/>
	<circle class="st1" cx="935.1" cy="157.8" r="2.5"/>
	<circle class="st1" cx="947.2" cy="157.8" r="2.5"/>
	<circle class="st1" cx="959.3" cy="157.8" r="2.5"/>
	<circle class="st1" cx="796.3" cy="149.6" r="2.5"/>
	<circle class="st1" cx="808.4" cy="149.6" r="2.5"/>
	<circle class="st1" cx="820.5" cy="149.6" r="2.5"/>
	<circle class="st1" cx="832.6" cy="149.6" r="2.5"/>
	<circle class="st1" cx="844.6" cy="149.6" r="2.5"/>
	<circle class="st1" cx="856.7" cy="149.6" r="2.5"/>
	<circle class="st1" cx="868.8" cy="149.6" r="2.5"/>
	<circle class="st1" cx="880.9" cy="149.6" r="2.5"/>
	<circle class="st1" cx="893" cy="149.6" r="2.5"/>
	<circle class="st1" cx="905.1" cy="149.6" r="2.5"/>
	<circle class="st1" cx="917.1" cy="149.6" r="2.5"/>
	<circle class="st1" cx="929.2" cy="149.6" r="2.5"/>
	<circle class="st1" cx="941.3" cy="149.6" r="2.5"/>
	<circle class="st1" cx="953.4" cy="149.6" r="2.5"/>
	<circle class="st1" cx="802.2" cy="141.6" r="2.5"/>
	<circle class="st1" cx="814.3" cy="141.6" r="2.5"/>
	<circle class="st1" cx="826.4" cy="141.6" r="2.5"/>
	<circle class="st1" cx="838.5" cy="141.6" r="2.5"/>
	<circle class="st1" cx="850.6" cy="141.6" r="2.5"/>
	<circle class="st1" cx="862.6" cy="141.6" r="2.5"/>
	<circle class="st1" cx="874.7" cy="141.6" r="2.5"/>
	<circle class="st1" cx="886.8" cy="141.6" r="2.5"/>
	<circle class="st1" cx="898.9" cy="141.6" r="2.5"/>
	<circle class="st1" cx="911" cy="141.6" r="2.5"/>
	<circle class="st1" cx="923.1" cy="141.6" r="2.5"/>
	<circle class="st1" cx="935.1" cy="141.6" r="2.5"/>
	<circle class="st1" cx="947.2" cy="141.6" r="2.5"/>
	<circle class="st1" cx="959.3" cy="141.6" r="2.5"/>
</g>
<g class="st0">
	<circle class="st1" cx="1080.8" cy="323.8" r="2.5"/>
	<circle class="st1" cx="1092.9" cy="323.8" r="2.5"/>
	<circle class="st1" cx="1105" cy="323.8" r="2.5"/>
	<circle class="st1" cx="1117.1" cy="323.8" r="2.5"/>
	<circle class="st1" cx="1129.2" cy="323.8" r="2.5"/>
	<circle class="st1" cx="1141.2" cy="323.8" r="2.5"/>
	<circle class="st1" cx="1153.3" cy="323.8" r="2.5"/>
	<circle class="st1" cx="1165.4" cy="323.8" r="2.5"/>
	<circle class="st1" cx="1177.5" cy="323.8" r="2.5"/>
	<circle class="st1" cx="1189.6" cy="323.8" r="2.5"/>
	<circle class="st1" cx="1201.7" cy="323.8" r="2.5"/>
	<circle class="st1" cx="1213.7" cy="323.8" r="2.5"/>
	<circle class="st1" cx="1225.8" cy="323.8" r="2.5"/>
	<circle class="st1" cx="1237.9" cy="323.8" r="2.5"/>
	<circle class="st1" cx="1086.7" cy="315.9" r="2.5"/>
	<circle class="st1" cx="1098.8" cy="315.9" r="2.5"/>
	<circle class="st1" cx="1110.9" cy="315.9" r="2.5"/>
	<circle class="st1" cx="1123" cy="315.9" r="2.5"/>
	<circle class="st1" cx="1135.1" cy="315.9" r="2.5"/>
	<circle class="st1" cx="1147.2" cy="315.9" r="2.5"/>
	<circle class="st1" cx="1159.2" cy="315.9" r="2.5"/>
	<circle class="st1" cx="1171.3" cy="315.9" r="2.5"/>
	<circle class="st1" cx="1183.4" cy="315.9" r="2.5"/>
	<circle class="st1" cx="1195.5" cy="315.9" r="2.5"/>
	<circle class="st1" cx="1207.6" cy="315.9" r="2.5"/>
	<circle class="st1" cx="1219.7" cy="315.9" r="2.5"/>
	<circle class="st1" cx="1231.7" cy="315.9" r="2.5"/>
	<circle class="st1" cx="1243.8" cy="315.9" r="2.5"/>
	<circle class="st1" cx="1080.8" cy="307.7" r="2.5"/>
	<circle class="st1" cx="1092.9" cy="307.7" r="2.5"/>
	<circle class="st1" cx="1105" cy="307.7" r="2.5"/>
	<circle class="st1" cx="1117.1" cy="307.7" r="2.5"/>
	<circle class="st1" cx="1129.2" cy="307.7" r="2.5"/>
	<circle class="st1" cx="1141.2" cy="307.7" r="2.5"/>
	<circle class="st1" cx="1153.3" cy="307.7" r="2.5"/>
	<circle class="st1" cx="1165.4" cy="307.7" r="2.5"/>
	<circle class="st1" cx="1177.5" cy="307.7" r="2.5"/>
	<circle class="st1" cx="1189.6" cy="307.7" r="2.5"/>
	<circle class="st1" cx="1201.7" cy="307.7" r="2.5"/>
	<circle class="st1" cx="1213.7" cy="307.7" r="2.5"/>
	<circle class="st1" cx="1225.8" cy="307.7" r="2.5"/>
	<circle class="st1" cx="1237.9" cy="307.7" r="2.5"/>
	<circle class="st1" cx="1086.7" cy="299.8" r="2.5"/>
	<circle class="st1" cx="1098.8" cy="299.8" r="2.5"/>
	<circle class="st1" cx="1110.9" cy="299.8" r="2.5"/>
	<circle class="st1" cx="1123" cy="299.8" r="2.5"/>
	<circle class="st1" cx="1135.1" cy="299.8" r="2.5"/>
	<circle class="st1" cx="1147.2" cy="299.8" r="2.5"/>
	<circle class="st1" cx="1159.2" cy="299.8" r="2.5"/>
	<circle class="st1" cx="1171.3" cy="299.8" r="2.5"/>
	<circle class="st1" cx="1183.4" cy="299.8" r="2.5"/>
	<circle class="st1" cx="1195.5" cy="299.8" r="2.5"/>
	<circle class="st1" cx="1207.6" cy="299.8" r="2.5"/>
	<circle class="st1" cx="1219.7" cy="299.8" r="2.5"/>
	<circle class="st1" cx="1231.7" cy="299.8" r="2.5"/>
	<circle class="st1" cx="1243.8" cy="299.8" r="2.5"/>
	<circle class="st1" cx="1080.8" cy="291.6" r="2.5"/>
	<circle class="st1" cx="1092.9" cy="291.6" r="2.5"/>
	<circle class="st1" cx="1105" cy="291.6" r="2.5"/>
	<circle class="st1" cx="1117.1" cy="291.6" r="2.5"/>
	<circle class="st1" cx="1129.2" cy="291.6" r="2.5"/>
	<circle class="st1" cx="1141.2" cy="291.6" r="2.5"/>
	<circle class="st1" cx="1153.3" cy="291.6" r="2.5"/>
	<circle class="st1" cx="1165.4" cy="291.6" r="2.5"/>
	<circle class="st1" cx="1177.5" cy="291.6" r="2.5"/>
	<circle class="st1" cx="1189.6" cy="291.6" r="2.5"/>
	<circle class="st1" cx="1201.7" cy="291.6" r="2.5"/>
	<circle class="st1" cx="1213.7" cy="291.6" r="2.5"/>
	<circle class="st1" cx="1225.8" cy="291.6" r="2.5"/>
	<circle class="st1" cx="1237.9" cy="291.6" r="2.5"/>
	<circle class="st1" cx="1086.7" cy="283.6" r="2.5"/>
	<circle class="st1" cx="1098.8" cy="283.6" r="2.5"/>
	<circle class="st1" cx="1110.9" cy="283.6" r="2.5"/>
	<circle class="st1" cx="1123" cy="283.6" r="2.5"/>
	<circle class="st1" cx="1135.1" cy="283.6" r="2.5"/>
	<circle class="st1" cx="1147.2" cy="283.6" r="2.5"/>
	<circle class="st1" cx="1159.2" cy="283.6" r="2.5"/>
	<circle class="st1" cx="1171.3" cy="283.6" r="2.5"/>
	<circle class="st1" cx="1183.4" cy="283.6" r="2.5"/>
	<circle class="st1" cx="1195.5" cy="283.6" r="2.5"/>
	<circle class="st1" cx="1207.6" cy="283.6" r="2.5"/>
	<circle class="st1" cx="1219.7" cy="283.6" r="2.5"/>
	<circle class="st1" cx="1231.7" cy="283.6" r="2.5"/>
	<circle class="st1" cx="1243.8" cy="283.6" r="2.5"/>
	<circle class="st1" cx="1080.8" cy="275.4" r="2.5"/>
	<circle class="st1" cx="1092.9" cy="275.4" r="2.5"/>
	<circle class="st1" cx="1105" cy="275.4" r="2.5"/>
	<circle class="st1" cx="1117.1" cy="275.4" r="2.5"/>
	<circle class="st1" cx="1129.2" cy="275.4" r="2.5"/>
	<circle class="st1" cx="1141.2" cy="275.4" r="2.5"/>
	<circle class="st1" cx="1153.3" cy="275.4" r="2.5"/>
	<circle class="st1" cx="1165.4" cy="275.4" r="2.5"/>
	<circle class="st1" cx="1177.5" cy="275.4" r="2.5"/>
	<circle class="st1" cx="1189.6" cy="275.4" r="2.5"/>
	<circle class="st1" cx="1201.7" cy="275.4" r="2.5"/>
	<circle class="st1" cx="1213.7" cy="275.4" r="2.5"/>
	<circle class="st1" cx="1225.8" cy="275.4" r="2.5"/>
	<circle class="st1" cx="1237.9" cy="275.4" r="2.5"/>
	<circle class="st1" cx="1086.7" cy="267.5" r="2.5"/>
	<circle class="st1" cx="1098.8" cy="267.5" r="2.5"/>
	<circle class="st1" cx="1110.9" cy="267.5" r="2.5"/>
	<circle class="st1" cx="1123" cy="267.5" r="2.5"/>
	<circle class="st1" cx="1135.1" cy="267.5" r="2.5"/>
	<circle class="st1" cx="1147.2" cy="267.5" r="2.5"/>
	<circle class="st1" cx="1159.2" cy="267.5" r="2.5"/>
	<circle class="st1" cx="1171.3" cy="267.5" r="2.5"/>
	<circle class="st1" cx="1183.4" cy="267.5" r="2.5"/>
	<circle class="st1" cx="1195.5" cy="267.5" r="2.5"/>
	<circle class="st1" cx="1207.6" cy="267.5" r="2.5"/>
	<circle class="st1" cx="1219.7" cy="267.5" r="2.5"/>
	<circle class="st1" cx="1231.7" cy="267.5" r="2.5"/>
	<circle class="st1" cx="1243.8" cy="267.5" r="2.5"/>
	<circle class="st1" cx="1080.8" cy="259.3" r="2.5"/>
	<circle class="st1" cx="1092.9" cy="259.3" r="2.5"/>
	<circle class="st1" cx="1105" cy="259.3" r="2.5"/>
	<circle class="st1" cx="1117.1" cy="259.3" r="2.5"/>
	<circle class="st1" cx="1129.2" cy="259.3" r="2.5"/>
	<circle class="st1" cx="1141.2" cy="259.3" r="2.5"/>
	<circle class="st1" cx="1153.3" cy="259.3" r="2.5"/>
	<circle class="st1" cx="1165.4" cy="259.3" r="2.5"/>
	<circle class="st1" cx="1177.5" cy="259.3" r="2.5"/>
	<circle class="st1" cx="1189.6" cy="259.3" r="2.5"/>
	<circle class="st1" cx="1201.7" cy="259.3" r="2.5"/>
	<circle class="st1" cx="1213.7" cy="259.3" r="2.5"/>
	<circle class="st1" cx="1225.8" cy="259.3" r="2.5"/>
	<circle class="st1" cx="1237.9" cy="259.3" r="2.5"/>
	<circle class="st1" cx="1086.7" cy="251.4" r="2.5"/>
	<circle class="st1" cx="1098.8" cy="251.4" r="2.5"/>
	<circle class="st1" cx="1110.9" cy="251.4" r="2.5"/>
	<circle class="st1" cx="1123" cy="251.4" r="2.5"/>
	<circle class="st1" cx="1135.1" cy="251.4" r="2.5"/>
	<circle class="st1" cx="1147.2" cy="251.4" r="2.5"/>
	<circle class="st1" cx="1159.2" cy="251.4" r="2.5"/>
	<circle class="st1" cx="1171.3" cy="251.4" r="2.5"/>
	<circle class="st1" cx="1183.4" cy="251.4" r="2.5"/>
	<circle class="st1" cx="1195.5" cy="251.4" r="2.5"/>
	<circle class="st1" cx="1207.6" cy="251.4" r="2.5"/>
	<circle class="st1" cx="1219.7" cy="251.4" r="2.5"/>
	<circle class="st1" cx="1231.7" cy="251.4" r="2.5"/>
	<circle class="st1" cx="1243.8" cy="251.4" r="2.5"/>
	<circle class="st1" cx="1080.8" cy="243.2" r="2.5"/>
	<circle class="st1" cx="1092.9" cy="243.2" r="2.5"/>
	<circle class="st1" cx="1105" cy="243.2" r="2.5"/>
	<circle class="st1" cx="1117.1" cy="243.2" r="2.5"/>
	<circle class="st1" cx="1129.2" cy="243.2" r="2.5"/>
	<circle class="st1" cx="1141.2" cy="243.2" r="2.5"/>
	<circle class="st1" cx="1153.3" cy="243.2" r="2.5"/>
	<circle class="st1" cx="1165.4" cy="243.2" r="2.5"/>
	<circle class="st1" cx="1177.5" cy="243.2" r="2.5"/>
	<circle class="st1" cx="1189.6" cy="243.2" r="2.5"/>
	<circle class="st1" cx="1201.7" cy="243.2" r="2.5"/>
	<circle class="st1" cx="1213.7" cy="243.2" r="2.5"/>
	<circle class="st1" cx="1225.8" cy="243.2" r="2.5"/>
	<circle class="st1" cx="1237.9" cy="243.2" r="2.5"/>
	<circle class="st1" cx="1086.7" cy="235.2" r="2.5"/>
	<circle class="st1" cx="1098.8" cy="235.2" r="2.5"/>
	<circle class="st1" cx="1110.9" cy="235.2" r="2.5"/>
	<circle class="st1" cx="1123" cy="235.2" r="2.5"/>
	<circle class="st1" cx="1135.1" cy="235.2" r="2.5"/>
	<circle class="st1" cx="1147.2" cy="235.2" r="2.5"/>
	<circle class="st1" cx="1159.2" cy="235.2" r="2.5"/>
	<circle class="st1" cx="1171.3" cy="235.2" r="2.5"/>
	<circle class="st1" cx="1183.4" cy="235.2" r="2.5"/>
	<circle class="st1" cx="1195.5" cy="235.2" r="2.5"/>
	<circle class="st1" cx="1207.6" cy="235.2" r="2.5"/>
	<circle class="st1" cx="1219.7" cy="235.2" r="2.5"/>
	<circle class="st1" cx="1231.7" cy="235.2" r="2.5"/>
	<circle class="st1" cx="1243.8" cy="235.2" r="2.5"/>
</g>
<linearGradient id="SVGID_1_" gradientUnits="userSpaceOnUse" x1="1131.9974" y1="-5239.1318" x2="368.9177" y2="-4798.5635" gradientTransform="matrix(-0.87 0.494 -0.494 -0.87 -949.496 -4313.624)">
	<stop  offset="0" style="stop-color:#5156E0;stop-opacity:0.1"/>
	<stop  offset="8.000000e-02" style="stop-color:#6256D1;stop-opacity:0.2"/>
	<stop  offset="0.34" style="stop-color:#9554A7;stop-opacity:0.48"/>
	<stop  offset="0.56" style="stop-color:#BD5385;stop-opacity:0.7"/>
	<stop  offset="0.76" style="stop-color:#DA536C;stop-opacity:0.86"/>
	<stop  offset="0.91" style="stop-color:#EB525E;stop-opacity:0.96"/>
	<stop  offset="1" style="stop-color:#F25258"/>
</linearGradient>
<path class="st2" d="M1322.8,255.7C1246.4,56,1007-9.4,838.1,16.9c-150.6,23.5-379.5,140-335.6,258c16.9,45.6,124.8,77.9,81,282.2
	c-20.4,95.4-33.2,118.2-14,164.1c46,109.6,317.8,160.1,512.9,55.9C1245.5,690,1404.1,468.5,1322.8,255.7L1322.8,255.7z"/>
<path class="st3" d="M334.6,51l7.3,13.8l13.8-7.3c3.8-2,8.4-0.5,10.4,3.3l0.4,0.7c2,3.8,0.5,8.4-3.3,10.4l-13.8,7.3l-7.5,3.9
	c-3.8,2-8.4,0.5-10.4-3.3l-3.9-7.5l-7.3-13.8c-2-3.8-0.5-8.4,3.3-10.4l0.7-0.4C328.1,45.8,332.6,47.3,334.6,51z M1349.5,657
	l-14.3,6.3l6.3,14.3c1.7,3.9,0,8.4-3.9,10.2h-0.1l-0.7,0.3c-3.9,1.7-8.4,0-10.2-3.9v-0.1l-6.3-14.3l-3.4-7.8
	c-1.7-3.9,0-8.4,3.9-10.2h0.1l7.8-3.4l14.3-6.3c3.9-1.7,8.4,0,10.2,3.9v0.1l0.3,0.7C1355.2,650.7,1353.5,655.2,1349.5,657
	C1349.6,657,1349.5,657,1349.5,657L1349.5,657z"/>
<linearGradient id="SVGID_2_" gradientUnits="userSpaceOnUse" x1="3689.2378" y1="-4492.3306" x2="3258.8877" y2="-4243.8706" gradientTransform="matrix(1 9.000000e-02 9.000000e-02 -1 -2797.99 -4107.9102)">
	<stop  offset="0" style="stop-color:#F25258;stop-opacity:0"/>
	<stop  offset="0.11" style="stop-color:#F25258;stop-opacity:0.14"/>
	<stop  offset="0.35" style="stop-color:#F25258;stop-opacity:0.44"/>
	<stop  offset="0.58" style="stop-color:#F25258;stop-opacity:0.68"/>
	<stop  offset="0.76" style="stop-color:#F25258;stop-opacity:0.85"/>
	<stop  offset="0.91" style="stop-color:#F25258;stop-opacity:0.96"/>
	<stop  offset="1" style="stop-color:#F25258"/>
</linearGradient>
<path class="st4" d="M1.7,581.8c-7.6-120.3,99.8-209.9,192.6-236c82.7-23.2,227.4-17.1,232.5,53.7c2,27.3-45.8,69.2,24.6,163.7
	c32.8,44.1,44.7,52.8,45.6,80.9c2,66.9-125.5,156.5-250,148.8C143,786.4,9.8,710,1.7,581.8z"/>
<linearGradient id="SVGID_3_" gradientUnits="userSpaceOnUse" x1="1050.4856" y1="-5380.3057" x2="287.1356" y2="-4939.5757" gradientTransform="matrix(-0.87 0.494 -0.494 -0.87 -949.496 -4313.624)">
	<stop  offset="0" style="stop-color:#F25258;stop-opacity:0"/>
	<stop  offset="0.11" style="stop-color:#F25258;stop-opacity:0.14"/>
	<stop  offset="0.35" style="stop-color:#F25258;stop-opacity:0.44"/>
	<stop  offset="0.58" style="stop-color:#F25258;stop-opacity:0.68"/>
	<stop  offset="0.76" style="stop-color:#F25258;stop-opacity:0.85"/>
	<stop  offset="0.91" style="stop-color:#F25258;stop-opacity:0.96"/>
	<stop  offset="1" style="stop-color:#F25258"/>
</linearGradient>
<path class="st5" d="M678.9,796.4h-26.1c96.7,45.8,254.7,54.8,388.7,0H678.9z"/>
<linearGradient id="SVGID_4_" gradientUnits="userSpaceOnUse" x1="378.5" y1="-34.05" x2="1140.4" y2="-34.05" gradientTransform="matrix(1 0 0 1 0 792)">
	<stop  offset="0" style="stop-color:#F2F2F2"/>
	<stop  offset="1" style="stop-color:#E6E6E6"/>
</linearGradient>
<path class="st6" d="M568.9,719.6H378.5v53.7c0,12.7,10.3,23,23,23h639.9c14-5.7,27.7-12.1,41-19.2c20.2-10.9,39.6-23.2,58-36.9
	v-20.6H568.9z"/>
<linearGradient id="SVGID_5_" gradientUnits="userSpaceOnUse" x1="496.95" y1="-535.7" x2="496.95" y2="-650.8" gradientTransform="matrix(1 0 0 1 0 792)">
	<stop  offset="0" style="stop-color:#F5F5FD;stop-opacity:0.5"/>
	<stop  offset="1" style="stop-color:#F2F2F2"/>
</linearGradient>
<path class="st7" d="M460.8,141.2c0,0,36.2,0,51.1,28.5c0,0,68.7-13.2,75.6,55.5c0,0,41.7-13.2,50.4,31.1H356
	c0,0,12.1-44.6,45.7-38.7C401.7,217.6,392.5,145.6,460.8,141.2L460.8,141.2z"/>
<path class="st8" d="M1135.9,231.1c0,0,61.7,40.4,121.7,180.6s-96.5,117.8-96.5,117.8s22-16.2-12.6-49.2c0,0,23.7-29.6,50.5-35.1
	c-22.7-12.7-107.7-108.2-107.7-108.2L1135.9,231.1z M1257.6,411.7c59.9,140.3-91,119.3-91,119.3s16.4-17.7-18.1-50.7
	c0,0,23.7-29.6,50.5-35.1S1197.6,271.4,1257.6,411.7L1257.6,411.7z"/>
<path class="st9" d="M1143.3,479.9c0,0,28.7,20.6,14.8,58.5l23-6.3c0,0,12.7-49.2-21.8-63.2L1143.3,479.9L1143.3,479.9z"/>
<path class="st8" d="M961.8,222.3c0,0-67.6,45.5-88,78c0,0,6.8-11.4-4.5-61.7c0,0-25.2,3.9-44.3-0.4c0,0-34.3,94.7-9.3,119.1
	s116.3-23.9,131.2-33.2S961.8,222.3,961.8,222.3L961.8,222.3z M862.5,357.1c31.5-154.1,79.9-162,90.9-162.4c0-0.6,0.1-1.2,0.1-1.7
	v-4c0-0.5,0-1-0.1-1.5v-2.1l-0.2-1.6v-0.3l-0.2-1.3v-0.4l-0.3-1.6l-0.4-1.6v-0.4l-0.4-1.2v-0.4l-0.6-1.5v-0.2l-0.5-1.2l-0.2-0.4
	l-0.6-1.2v-0.3l-0.8-1.4l-0.2-0.3l-0.7-1.1l-0.3-0.4l-1-1.3c-24-30.8-25.1-78.8-20-97c8.4-30.1,66.3-96,148.8-59.4
	s21.9,192.5,21.9,192.5c8.7,3.6,16.9,8.3,24.4,14.1c5.4,4.2,13.4,12.2,19.7,17.6c4.3,3.6,2.1,5,5.2,9.7c1.9,2.9,3.6,5.8,5.2,8.8
	l1.6,3c1.1,2.1,2.1,4.1,3,6.2s1.8,4.2,2.7,6.4c0.9,2.2,1.7,4.4,2.5,6.6c1.9,5.6,3.6,11.4,5.1,17.3c1.1,4.7,2.1,9.6,3,14.5
	c2.3,13,3.6,26.5-1.7,87L862.5,357.1L862.5,357.1z"/>
<path class="st9" d="M995,33.2c0,0-50.5,4.3-64,47.1s28.9,95.3,44.2,111.2s25.5,55.7,25.5,55.7s19.4-30.5,41-51.9
	c21.6-21.4,66.7-69.5,20.8-138.1C1062.6,57.1,1029.8,30.1,995,33.2L995,33.2z"/>
<linearGradient id="SVGID_6_" gradientUnits="userSpaceOnUse" x1="-833.8567" y1="-496.59" x2="-837.6666" y2="-595.2509" gradientTransform="matrix(-0.99 -0.12 -0.12 0.99 111.27 614.36)">
	<stop  offset="0" style="stop-color:#000000;stop-opacity:0"/>
	<stop  offset="1" style="stop-color:#000000"/>
</linearGradient>
<path class="st10" d="M946.9,85.8C957.8,36,995,33.2,995,33.2c103.7-1.7,102.2,106.8,68.3,140.7c-9.7,9.7-19.2,19.1-27.9,27.5
	l-0.4,0.4h0.4c-17,18.5-31.4,40.3-34.1,44.5l-1.5-2.8c-2.3-8-8.4-27.6-17-41.9c-3-2.9-5.6-6.3-7.5-10.1
	C957.9,157.2,939.6,119.1,946.9,85.8L946.9,85.8z"/>
<path class="st11" d="M1052.8,118.9c-17.6,1-23.7-6.7-25.8-11.1c21.7,2.4,36.7-1.9,40.6-3.2C1066.8,109.5,1064,118.3,1052.8,118.9
	L1052.8,118.9z M975.7,109.4c16.8,5.2,24.6-0.8,27.7-4.5c-21.6-2.9-35.1-10.7-38.5-12.9C964.4,96.9,965.1,106.1,975.7,109.4z"/>
<path class="st9" d="M1067.9,234.5c-1.7,1.1-3.9,0.9-5.4-0.5h-0.1c-1.7-1.7-1.6-4.4,0.1-6.1c0.5-0.5,1.1-0.8,1.7-1
	c21.9-6.8,31-20.6,32.8-23.4c11.1,4.6,21.4,11,30.4,19.1C1100.3,215.4,1076,229.1,1067.9,234.5z M959.1,198.7
	c1.1-6.2,1-12.5-0.2-18.6c0,0,8.9,23,4.5,32C959.8,219.5,962.4,207.4,959.1,198.7z M1005.4,29c0,0,80.9-8.1,91.5,65.6
	C1096.9,94.7,1083.1,36.4,1005.4,29z"/>
<path class="st8" d="M775.1,227.9c2.2-11.4-7.8-13.7-4.7-24.5c15.8-10.9,84.3-6.5,99.3,36.3c-14.4,19.5-22.3,20.6-22.3,20.6
	C819.2,239.7,775.1,227.9,775.1,227.9z"/>
<path class="st9" d="M771.3,230.9c2.2-11.4-7.8-13.7-4.7-24.5c15.8-10.9,74.9-9.6,90,33.3c-14.4,19.5-13,23.6-13,23.6
	C815.4,242.6,771.3,230.9,771.3,230.9z"/>
<radialGradient id="SVGID_7_" cx="-3701.5852" cy="35888.375" r="49.7227" gradientTransform="matrix(4.51 0 0 0.13 17454.9512 -3786.72)" gradientUnits="userSpaceOnUse">
	<stop  offset="0" style="stop-color:#000000;stop-opacity:0.4"/>
	<stop  offset="1" style="stop-color:#000000;stop-opacity:0"/>
</radialGradient>
<ellipse class="st12" cx="760.8" cy="873" rx="224.2" ry="6.5"/>
<path class="st13" d="M1117.5,235.7h-716c-12.7,0-23,10.3-23,23v460.9h762V258.7C1140.5,246,1130.2,235.7,1117.5,235.7L1117.5,235.7
	z"/>
<path class="st14" d="M395.7,719.6V258.7c0-3.2,2.6-5.8,5.8-5.8h716c3.2,0,5.8,2.6,5.8,5.8v460.9H395.7z"/>
<linearGradient id="SVGID_8_" gradientUnits="userSpaceOnUse" x1="410.1" y1="-312.4" x2="1108.8" y2="-312.4" gradientTransform="matrix(1 0 0 1 0 792)">
	<stop  offset="0" style="stop-color:#FFFFFF"/>
	<stop  offset="1" style="stop-color:#C4DAFF"/>
</linearGradient>
<path class="st15" d="M410.1,269.1h698.7v421H410.1V269.1z"/>
<path class="st16" d="M884.2,538.9h132.6v109.2H884.2V538.9z M884.2,412.7h195.1v109.2H884.2V412.7z"/>
<linearGradient id="SVGID_9_" gradientUnits="userSpaceOnUse" x1="762.3372" y1="80.17" x2="762.3372" y2="72.82" gradientTransform="matrix(1 0 0 1 0 792)">
	<stop  offset="0" style="stop-color:#B3B3B3"/>
	<stop  offset="4.000000e-02" style="stop-color:#B8B8B8"/>
	<stop  offset="0.19" style="stop-color:#C3C3C3"/>
	<stop  offset="0.4" style="stop-color:#CACACA"/>
	<stop  offset="1" style="stop-color:#CCCCCC"/>
</linearGradient>
<path class="st17" d="M644.6,872.2h235.5l7.7-5.5c0.4-0.3,0.5-1,0.2-1.4c-0.2-0.3-0.5-0.4-0.8-0.4H637.5c-0.6,0-1,0.4-1,1
	c0,0.3,0.1,0.6,0.4,0.8L644.6,872.2L644.6,872.2z"/>
<path class="st18" d="M673.6,846.3c0,0-1.4,13.1-18.1,15.4l-18,3.2h249.7l-18-3.2c-16.6-2.2-18.1-15.4-18.1-15.4l-2.7-25.2
	l-170.7-14.2L673.6,846.3L673.6,846.3z"/>
<path class="st19" d="M677.7,806.9l170.6,14.2l-2.7-24.7H678.7L677.7,806.9z"/>
<path class="st20" d="M845.4,224c3.1,4.4,3.3,10.2,6.1,14.7s8.4,12.6,12.2,15.7c3.8,3.1,2.5,11.5-3,11.3s-19.1-10.3-28-27.9
	s-19.8,10.4-22.3,21.5s-12.8,44.8-16.8,46.7c-5.9,2.8-9-3-6.1-13.9s16.3-46.9,3.7-48.5c-4.8-0.6-9.3,36.5-9.3,36.5
	s-1.3,26.4-6.5,27.3c-12.3,2.2-4-57.4-2.1-62.9c1.2-3.9-3.2-4.8-6.4-1.9c-6.9,6.2-5.8,56.9-9.6,53.4c-15.9,3.3-3.3-52.1-4.1-54.6
	c-5.9-2-3.5,36.2-14.2,36.4c-3.5,0.1-6.7-7.3-2-28.6c6.4-29.4,12.6-32.1,31.2-44.6C780.4,196.1,833,206.5,845.4,224L845.4,224z"/>
<linearGradient id="SVGID_10_" gradientUnits="userSpaceOnUse" x1="541.15" y1="-689.76" x2="541.15" y2="-717.3" gradientTransform="matrix(1 0 0 1 0 792)">
	<stop  offset="0" style="stop-color:#F5F5FD;stop-opacity:0.5"/>
	<stop  offset="1" style="stop-color:#F2F2F2"/>
</linearGradient>
<path class="st21" d="M532.5,74.7c0,0,8.7,0,12.2,6.8c0,0,16.4-3.1,18.1,13.3c0,0,10-3.1,12.1,7.4h-67.5c0,0,2.9-10.7,10.9-9.3
	C518.3,93,516.1,75.8,532.5,74.7z"/>
<circle class="st22" cx="139.3" cy="209.4" r="8.5"/>
<circle class="st23" cx="674.1" cy="68.4" r="12.9"/>
<linearGradient id="SVGID_11_" gradientUnits="userSpaceOnUse" x1="1080.1632" y1="-13.6741" x2="1064.8833" y2="-42.4241" gradientTransform="matrix(1 0 0 1 0 792)">
	<stop  offset="0" style="stop-color:#000000;stop-opacity:0.1"/>
	<stop  offset="0.13" style="stop-color:#000000;stop-opacity:7.000000e-02"/>
	<stop  offset="1" style="stop-color:#000000;stop-opacity:0"/>
</linearGradient>
<path class="st24" d="M992.9,796.4h48.5c14-5.7,27.7-12.1,41-19.2c20.2-10.9,39.6-23.2,58-36.9v-30.9
	C1140.4,709.4,1088.3,769.7,992.9,796.4L992.9,796.4z"/>
<path class="st20" d="M1152.4,466.4c-3.4-3.2-8.2-4.4-12.1-7v20.7c7.3,9.5-17.7,15-27.9,15.9s-46.2,6.1-48.6,9.8
	c-3.6,5.4,1.6,9.3,12.9,8.1s48.8-9.3,48.5,3.4c-0.1,4.9-37.5,3.9-37.5,3.9s-26.3-2.6-28,2.4c-4,11.8,56.2,12.3,61.9,11.3
	c4-0.7,4.3,3.8,0.9,6.6c-7.1,5.9-57.1-2.6-54.3,1.7c-5.6,15.3,51,10.9,53.4,12.1c1.2,6.2-36.4-1.9-38.1,8.8c-0.6,3.4,6.2,7.7,28,6.2
	c30-2.1,33.6-7.8,48.7-24.3C1170.5,534.8,1167.9,481.2,1152.4,466.4z"/>
<linearGradient id="SVGID_12_" gradientUnits="userSpaceOnUse" x1="311.1" y1="-487.9" x2="311.1" y2="-643.9" gradientTransform="matrix(1 0 0 1 0 792)">
	<stop  offset="0" style="stop-color:#F5F5FD;stop-opacity:0.5"/>
	<stop  offset="1" style="stop-color:#F2F2F2"/>
</linearGradient>
<path class="st25" d="M262.1,148.1c0,0,49,0,69.3,38.6c0,0,93.1-17.8,102.5,75.3c0,0,56.5-17.8,68.3,42.1H120
	c0,0,16.3-60.4,61.9-52.5C181.9,251.6,169.5,154,262.1,148.1L262.1,148.1z"/>
<g>
	<defs>
		<rect id="SVGID_13_" x="409" y="269.1" width="699.8" height="420.2"/>
	</defs>
	<clipPath id="SVGID_14_">
		<use xlink:href="#SVGID_13_"  style="overflow:visible;"/>
	</clipPath>
	<g class="st26">
		<path class="st27" d="M892.2,764.6H450.9v-420c0-2.2,1.8-4,4-4h433.3c2.2,0,4,1.8,4,4L892.2,764.6L892.2,764.6z"/>
		<path class="st28" d="M900.2,772.6H458.9v-420c0-2.2,1.8-4,4-4h433.3c2.2,0,4,1.8,4,4L900.2,772.6L900.2,772.6z"/>
		<path class="st29" d="M487.2,428.7h141.4c1,0,1.8,0.8,1.8,1.8v1.8c0,1-0.8,1.8-1.8,1.8H487.2c-1,0-1.8-0.8-1.8-1.8v-1.8
			C485.4,429.5,486.2,428.7,487.2,428.7z M487.2,444.9h141.4c1,0,1.8,0.8,1.8,1.8v1.8c0,1-0.8,1.8-1.8,1.8H487.2
			c-1,0-1.8-0.8-1.8-1.8v-1.8C485.4,445.7,486.2,444.9,487.2,444.9z M487.2,483h141.4c1,0,1.8,0.8,1.8,1.8v1.8c0,1-0.8,1.8-1.8,1.8
			H487.2c-1,0-1.8-0.8-1.8-1.8v-1.8C485.4,483.8,486.2,483,487.2,483z M487.2,499.2h141.4c1,0,1.8,0.8,1.8,1.8v1.8
			c0,1-0.8,1.8-1.8,1.8H487.2c-1,0-1.8-0.8-1.8-1.8V501C485.4,500,486.2,499.2,487.2,499.2L487.2,499.2z M487.2,517.8h141.4
			c1,0,1.8,0.8,1.8,1.8v1.8c0,1-0.8,1.8-1.8,1.8H487.2c-1,0-1.8-0.8-1.8-1.8v-1.8C485.4,518.6,486.2,517.8,487.2,517.8z M487.2,534
			H607c1,0,1.8,0.8,1.8,1.8v1.8c0,1-0.8,1.8-1.8,1.8H487.2c-1,0-1.8-0.8-1.8-1.8v-1.8C485.4,534.8,486.2,534,487.2,534z
			 M487.2,552.6H607c1,0,1.8,0.8,1.8,1.8v1.8c0,1-0.8,1.8-1.8,1.8H487.2c-1,0-1.8-0.8-1.8-1.8v-1.8
			C485.4,553.4,486.2,552.6,487.2,552.6z M485.8,465.1h165.1c1,0,1.8,0.8,1.8,1.8v1.8c0,1-0.8,1.8-1.8,1.8H485.8
			c-1,0-1.8-0.8-1.8-1.8v-1.8C484,465.9,484.8,465.1,485.8,465.1L485.8,465.1z M462.9,348.6h433.3c2.2,0,4,1.8,4,4v33.6H458.9v-33.6
			C458.9,350.4,460.7,348.6,462.9,348.6L462.9,348.6z"/>
		<path class="st30" d="M482.3,361.3h157.3c3.9,0,7,3.1,7,7s-3.1,7-7,7H482.3c-3.9,0-7-3.1-7-7S478.4,361.3,482.3,361.3z"/>
		<circle class="st31" cx="875.4" cy="367.2" r="7.6"/>
		<circle class="st30" cx="849" cy="367.2" r="7.6"/>
		<path class="st32" d="M851.2,624.8v-144c0-1.5-1.3-2.8-2.8-2.8h-22c-1.5,0-2.8,1.3-2.8,2.8v144H851.2z"/>
		<path class="st33" d="M799.3,521.4c0-1.5-1.3-2.8-2.8-2.8h-22c-1.5,0-2.8,1.3-2.8,2.8v113.4h27.6V521.4z"/>
		<path class="st34" d="M695.4,644.8v-42c0-1.5-1.3-2.8-2.8-2.8h-22c-1.5,0-2.8,1.3-2.8,2.8v42H695.4z"/>
		<path class="st35" d="M747.4,644.8v-82.6c0-1.5-1.3-2.8-2.8-2.8h-22c-1.5,0-2.8,1.3-2.8,2.8v82.7L747.4,644.8L747.4,644.8z"/>
	</g>
</g>
<radialGradient id="SVGID_15_" cx="-3666.186" cy="38168.1016" r="49.71" gradientTransform="matrix(3.36 0 0 0.21 12795.4004 -7194.7402)" gradientUnits="userSpaceOnUse">
	<stop  offset="0" style="stop-color:#000000;stop-opacity:0.3"/>
	<stop  offset="1" style="stop-color:#000000;stop-opacity:0"/>
</radialGradient>
<ellipse class="st36" cx="493.4" cy="911.5" rx="166.9" ry="10.5"/>
<path class="st37" d="M362.4,452.2h155.8c22.9,0,41.5,18.6,41.5,41.5v381.9c0,22.9-18.6,41.5-41.5,41.5H362.4
	c-22.9,0-41.5-18.6-41.5-41.5V493.7C320.9,470.8,339.5,452.2,362.4,452.2z"/>
<path class="st38" d="M352.6,452.2h155.8c22.9,0,41.5,18.6,41.5,41.5v381.9c0,22.9-18.6,41.5-41.5,41.5H352.6
	c-22.9,0-41.5-18.6-41.5-41.5V493.7C311.1,470.8,329.7,452.2,352.6,452.2z"/>
<linearGradient id="SVGID_16_" gradientUnits="userSpaceOnUse" x1="275.8375" y1="-262.6625" x2="587.0626" y2="48.5625" gradientTransform="matrix(1 0 0 1 0 792)">
	<stop  offset="0" style="stop-color:#FFFFFF"/>
	<stop  offset="1" style="stop-color:#E5F1F9"/>
</linearGradient>
<path class="st39" d="M352.7,464.4h157.5c15.9,0,28.7,12.8,28.7,28.7v383.7c0,15.9-12.8,28.7-28.7,28.7H352.7
	c-15.9,0-28.7-12.8-28.7-28.7V493.1C324,477.2,336.8,464.4,352.7,464.4z"/>
<path class="st38" d="M502.8,461.8H358.3l8.8,16.5c2,3.8,5.9,6.1,10.2,6.1h106.5c4.3,0,8.2-2.3,10.2-6.1L502.8,461.8z"/>
<path class="st40" d="M430,524.4h97.6v120.7H430V524.4z"/>
<path class="st41" d="M430,813.8h97.6v64.5H430V813.8z"/>
<path class="st42" d="M335.4,782.9h81.7v58.5h-81.7L335.4,782.9z"/>
<path class="st43" d="M335.4,655.7h192.2v120.7H335.4V655.7z"/>
<path class="st34" d="M833.5,416.3c0.2-2.7-1.9-5-4.6-5.2h-30.6c-2.7,0-4.9,2.2-4.9,4.9s2.2,4.9,4.9,4.9h18.4L768,469.6l-18.4-18.4
	c-1.9-1.9-5-2-6.9-0.1l-0.1,0.1l-88.5,88.5c-1.9,1.9-1.9,5.1,0,7s5.1,1.9,7,0l85-85l18.4,18.4c1.9,1.9,5,2,6.9,0.1l0.1-0.1
	l52.1-52.1v16.6c0,2.7,2.2,4.9,4.9,4.9s4.9-2.2,4.9-4.9L833.5,416.3L833.5,416.3L833.5,416.3z"/>
<path class="st31" d="M184.7,918.1l23.6,8.5c3,1.6,6,4,5.3,7.9c-0.3,1.7-0.8,3.3-1.4,4.9c-1.3,1-32-11.8-32-11.8v-0.2
	C178.7,920.9,184.7,918.1,184.7,918.1L184.7,918.1z"/>
<path class="st44" d="M212.3,939.3l-32.1-11.7l-0.3,1.7l31.9,11.5L212.3,939.3z"/>
<path class="st28" d="M194.1,921.4l2.1,0.8l-2.1,3.6l-2-0.7L194.1,921.4z M198.6,923.1l2.1,0.7l-2,3.7l-2.1-0.8L198.6,923.1z"/>
<path class="st45" d="M190,906.2l-5.2,11.8c1.4,2,3.8,2.9,6.2,2.5h0.4l3.8-5L190,906.2z"/>
<path class="st31" d="M115.5,860.7l13.7,17c1.5,2.5,2.7,5.7,0.4,8.3c-1,1.1-2.1,2.1-3.3,3c-1.4,0.2-18.5-23.3-18.5-23.3v-0.2
	C109.8,860.1,115.5,860.7,115.5,860.7L115.5,860.7z"/>
<path class="st44" d="M126.4,889.1l-18.5-23.4l-1.1,1.2l18.5,23.1L126.4,889.1z"/>
<path class="st28" d="M121,867.5l1.2,1.5l-3.2,1.8l-1.2-1.5L121,867.5z M123.6,870.8l1.2,1.5l-3.1,1.8l-1.2-1.5L123.6,870.8z"/>
<path class="st45" d="M123.4,853.3l-7.9,7.5c0.2,2.1,1.5,3.9,3.5,4.7h0.4l8.8-4.6L123.4,853.3L123.4,853.3z"/>
<path class="st46" d="M373.9,602.2l3.8-1.7c0,0,0.4,3.3-3.7,5.4L373.9,602.2L373.9,602.2z"/>
<path class="st47" d="M264.1,733.2c0,0,12.7,23.3-8.5,86.7s-59.5,97.8-59.5,97.8l-11.5-5.3c0,0,50.5-70.7,39.7-133.1
	c0,0-31.4,56.1-98.1,85.8l-6.8-11.2c0,0,53.4-38.3,73.7-97c4-11.6,8-16.9,8.3-31.3L264.1,733.2z"/>
<path class="st48" d="M233.4,848.9c-0.1,0.3-3.3-0.9-7.3-1.7s-7.4-1.1-7.4-1.4s3.5-0.5,7.6,0.4S233.5,848.7,233.4,848.9L233.4,848.9
	z M237.1,844.5c0,0.1-0.9,0.5-2.5,0.8c-4.1,0.6-8.4-0.4-11.9-2.6c-1.3-0.9-2-1.6-1.9-1.7s3.3,2.1,7.9,3S237.1,844.1,237.1,844.5z
	 M181.5,818.5c-0.2,0.2-2.4-2-3.5-5.5s-0.7-6.6-0.4-6.5s0.3,2.9,1.4,6.2S181.8,818.3,181.5,818.5z M179.6,819.6
	c-0.2,0-0.2-0.6-0.7-1.3s-1.5-1.7-2.4-2.9s-3.5-4-3.3-4.2s2.1,1.3,4.1,3.6c0.9,1,1.7,2,2.3,3.2C180,818.9,179.7,819.7,179.6,819.6
	L179.6,819.6z M236.9,788.9c0,0.1-1.7-0.3-3.8-1.9c-2.6-2.2-5.1-4.5-7.4-7l-7-7.3c-1.8-1.9-2.8-3.2-2.7-3.2s1.3,1,3.2,2.7l7.2,7.1
	c2.8,2.8,5.2,5.5,7.1,7.1S236.9,788.7,236.9,788.9L236.9,788.9z"/>
<radialGradient id="SVGID_17_" cx="-2075.9153" cy="36083.0273" r="97.46" gradientTransform="matrix(2.57 0 0 0.13 6341.6499 -3786.72)" gradientUnits="userSpaceOnUse">
	<stop  offset="0" style="stop-color:#000000;stop-opacity:0.4"/>
	<stop  offset="1" style="stop-color:#000000;stop-opacity:0"/>
</radialGradient>
<path class="st49" d="M1209.2,901.8c0,6-86.7,10.9-205.5,10.9s-215-4.9-215-10.9s84.1-17.5,194.7-18c5.8,0,14.5,7.1,20.3,7.1
	C1122.5,890.9,1209.2,895.8,1209.2,901.8z"/>
<path class="st46" d="M1128.7,813.3l-2-10.4l-2.7-4c-1-1.5-1.2-5,0.3-6c7.6-5.1,29.7-17.9,33.8-19.1c0,0,1.1,4.4-1.7,6
	s-17.3,18.4-17.3,18.4l0.7,9.1L1128.7,813.3L1128.7,813.3z"/>
<path class="st50" d="M1150.7,775.2l-4.8,1.7l-20.1,7.8l-4.6,0.8l-2.4,1.4l2.5,5.4c0,0,3.1,8.9,3.7,9.2c0.6-3.2,2.1-6.3,4.4-8.6
	c3.6-2.6,14.4-11.6,18.7-4.7c3.8-3,10.7-9.6,12.8-13.6c0,0-1.6-1.9-3.6-1.5l-6.6,2.2"/>
<path class="st51" d="M1140.9,805.8l30,82.4c0,0-10.9,13.7-25.8,9.6l-18.3-85.6L1140.9,805.8L1140.9,805.8z"/>
<path class="st46" d="M1201.4,810.4l5.3-9.1l0.5-4.8c0.2-1.8,2.3-4.6,4.1-4.3c9.1,1.1,34.2,5.8,38,7.6c0,0-2,4-5.2,3.5
	s-25.1,2.6-25.1,2.6l-5.4,7.3L1201.4,810.4L1201.4,810.4z"/>
<path class="st52" d="M1047.6,863.5c7.5-5.6,14.9-12,24-12c10.7,0,19.6,6.3,31.9,14.5c27.2-4,56.7,12.1,59.6,10
	c17.2-37.9,31.9-57.9,36.5-66.5c0,0,13.8,0.4,16.4,4.8c-18.4,31.7-22.1,81.5-48.8,85.4c-20.1,3-118.4,2.6-123.2-3.5L1047.6,863.5z"
	/>
<path class="st50" d="M1209.5,789.6c0,0-3.4,8.8-3.2,9.4c2.5-2.1,5.7-3.4,9-3.7c4.4,0.4,18.5,0.6,17.3,8.6c4.9,0.2,14.4-0.2,18.6-2
	c0,0,0-2.5-1.8-3.5c0,0-8.2-3.4-11.2-4.5l-17.8-6.8l-6.5-2.8l-2.7-0.5L1209.5,789.6L1209.5,789.6z"/>
<linearGradient id="SVGID_18_" gradientUnits="userSpaceOnUse" x1="-802.7467" y1="633.6106" x2="-805.1057" y2="639.7606" gradientTransform="matrix(-0.352 -0.936 0.936 -0.352 170.06 350.563)">
	<stop  offset="0" style="stop-color:#000000;stop-opacity:0.3"/>
	<stop  offset="1" style="stop-color:#000000;stop-opacity:0"/>
</linearGradient>
<path class="st53" d="M1046.5,897.6l5.8,1.2l1.1-39.7l-5.4,4.3L1046.5,897.6z"/>
<path class="st54" d="M899,787.7c-7.2,0-22.5,32.5,26,49.2c16.6,5.7,47.3-2.7,53.3-12.1c0,0-28.5-60.6-55.8-56.9
	C899.8,771,899,787.7,899,787.7z"/>
<path class="st46" d="M904.2,789.6c5.8,8.6,1.3,26.6,19,28.2c2.3,0.2,4.6-0.1,6.8-0.9c0,0,5.5,9.1,9.9,11.2c6.3,0,5.4-4.9,9.6-9.1
	l-5.8-11c0,0-1.6-17.7-7.7-25.1c-7.4-9-13.9-11.3-22.5-8.6S901.5,785.6,904.2,789.6L904.2,789.6z M867.3,883l9.1-6.3l12.4,1.5
	l41.7-10.2l1.9,12.3l-41.9,2.7l-4.5,1.2c-1.3,0.4-2.7,0.2-3.9-0.4l-5.7-2.8l-8.1,5L867.3,883z"/>
<path class="st55" d="M952.1,818.7c-9.6,1.6-9.9,18.8-18.4,46.7l-40.7,8.3l2.6,9.9c0,0,44.4-2.1,51.1-3.5S968.4,816,952.1,818.7
	L952.1,818.7z M955,815.2c-5.4,0-7,0.6-10.6,4c-0.8,0.7-1.4,1.6-2,2.5c-7.9,22.6-10.1,53.6,13.9,64.3c4.7,2.1,18.1,6.3,32,7.3
	c28.6,2.2,58.2,5.7,58.2,5.7c2.3-2.4,1.5-35.5,1.5-35.5C996.7,863.4,970.2,815.2,955,815.2z"/>
<path class="st46" d="M883.9,894.5l8.6-6c1-0.6,2.3-0.7,3.4-0.4l10.8,2.9l45.6-7.7v14.2l-44.6-0.8l-4.8,0.7c-1.4,0.2-2.9-0.1-4-1
	l-5.5-4l-9.1,4.6L883.9,894.5z"/>
<path class="st56" d="M944.4,818.9c3.4-3.2,4.9-3.7,10-3.7c14.3,0,13,24.8,24.6,65.8c1.2,4.2,8.2,15.8-3.7,16.9s-59.4,2.3-59.4,2.3
	l-5.1-13.5l41.4-7.3C952.2,879.4,930.7,831.7,944.4,818.9z"/>
<path class="st57" d="M947.2,816.6c-15.7,4.8-13.2-11-13.2-11c5.9,1.4,4.5-13.2-1.6-14c-3.9-0.5-3.1,5.4-3.1,5.4
	c-8,7.6-16.4-14.8-30.3-9.3c-0.6-9.2,8.1-18.7,15.8-23.1s16.6-5.4,23.2-1.3s5.5,11,11.5,14.1s13.2,0.6,19.8-1.2s14.9-2.4,19.3,3
	c2.8,3.4,3.1,8.3,2.4,12.8s-1.5,7,0.4,9.7s5.6,3.1,8.9,2.8c6.2-0.6,7.3-1.9,19.2-4.2s22.3-1.8,32,3.5s14.6,14.9,14,27.7
	c-0.3,7.2-6,19.3-19,27c-6.1,3.6-32.8,17.5-61.5,0.6c-14.6-8.6-11.3-21.1-15.9-31.3C963.8,815.2,957.6,813.5,947.2,816.6
	L947.2,816.6z"/>
<circle class="st28" cx="931.1" cy="795.1" r="8.6"/>
<path class="st58" d="M906.7,777.1c13.4,0.4,20.1,5.8,26.3,16.1l-3.6,3.8c0,0-5.4-18.2-23.5-18.5L906.7,777.1L906.7,777.1z"/>
<circle class="st58" cx="931.1" cy="795.1" r="4.7"/>
<linearGradient id="SVGID_19_" gradientUnits="userSpaceOnUse" x1="4607.0854" y1="81.35" x2="4690.8999" y2="81.35" gradientTransform="matrix(1 0 0 1 -3803.8999 792)">
	<stop  offset="0" style="stop-color:#CCCCCC"/>
	<stop  offset="0.41" style="stop-color:#C8C8C8"/>
	<stop  offset="0.78" style="stop-color:#BEBEBE"/>
	<stop  offset="1" style="stop-color:#B3B3B3"/>
</linearGradient>
<path class="st59" d="M887,896.5h-71.3l-12.3-39.6c-0.8-2.7,0.7-5.7,3.5-6.5c0.5-0.1,0.9-0.2,1.4-0.2h60.5c2.2,0,4.2,1.5,4.9,3.6
	L887,896.5L887,896.5z"/>
<path class="st60" d="M815.7,896.5h108.5c0.6,0,1,0.4,1,1v2.2c0,0.6-0.4,1-1,1H817.8c-1.2,0-2.1-0.9-2.1-2.1V896.5L815.7,896.5z"/>
<path class="st61" d="M815.7,896.5H887v2.7c0,0.8-0.7,1.5-1.5,1.5h-67.6c-1.2,0-2.2-1-2.2-2.2V896.5z"/>
<path class="st28" d="M848.4,874.1c0.3,1.5-0.6,2.9-2,3.2c-0.2,0-0.4,0.1-0.7,0.1c-1.9-0.1-3.5-1.4-3.9-3.3c-0.3-1.5,0.6-2.9,2-3.2
	c0.2,0,0.4-0.1,0.7-0.1C846.4,870.9,848,872.2,848.4,874.1z M922.7,809.6c0,1.8-1.5,3.2-3.2,3.2s-3.2-1.5-3.2-3.2H922.7z"/>
<path class="st44" d="M320.5,338.3c-27.5-13.9-32.4-33.5-33.2-37.5v-0.6h-0.2c-2.9,0.2-23.9,1-44.7-23.4c0,0-34.8,38.2-35.1,66.4
	c-0.3,26.6,7.7,42,9.6,45.2l0.4,0.6c0,0.1,18.3,7.9,46.8-1C294.7,378.6,320.5,338.3,320.5,338.3L320.5,338.3z"/>
<path class="st62" d="M320.5,338.3c-27.5-13.9-32.4-33.5-33.2-37.5L217,388.4l0.4,0.6c0,0.1,18.3,7.9,46.8-1
	C294.7,378.6,320.5,338.3,320.5,338.3L320.5,338.3z"/>
<path class="st28" d="M274.2,361.5c-9.6,11.9-27.1,13.9-39.1,4.3H235c-12-9.7-13.9-27.2-4.2-39.2s27.2-13.9,39.2-4.2h0.1
	C282,332,283.9,349.5,274.2,361.5L274.2,361.5z"/>
<path class="st23" d="M245,351.7l3.4-4.2c-0.8-1.4-0.3-3.3,1.2-4.1c1.1-0.6,2.4-0.5,3.3,0.3l2.8-3.5l-5.4-4.3l2.7-3.4
	c2.4-3.1,6.7-3.6,9.8-1.3l1.9-2.4c-4.2-3.4-10.4-2.7-13.8,1.5l-3,3.7l-2.8-2.3L235,344.5c-2.4,3-1.9,7.5,1.1,9.9l5,4l4.1-5.1
	C244.7,352.9,244.6,352.3,245,351.7L245,351.7z M255.9,361.3l10.2-12.6l-2.8-2.3l3-3.7c3.4-4.2,2.7-10.4-1.5-13.8l-1.9,2.4
	c3,2.5,3.3,6.9,0.8,9.9l-2.7,3.4l-5.3-4.3l-2.8,3.5c1.3,1.1,1.4,3,0.4,4.2c-0.7,0.9-2,1.3-3.1,1l-3.4,4.2c-0.4,0.5-1,0.6-1.5,0.3
	l-0.1-0.1l-4.1,5.1l4.9,3.9C249,364.8,253.5,364.3,255.9,361.3L255.9,361.3z"/>
<path class="st46" d="M264.4,386.2c0,0,1.8-5.6,2.5-6.4c1.5-1.1,3.1-2.1,4.7-3l2.9-6.7c0,0,2.6-2.1,2.5,2.1c0,1.2-3.7,7.9,0.3,10.1
	l10-6.3c0,0-0.8,4.1-2.2,5.4s-16,13.1-16,13.1L264.4,386.2L264.4,386.2z"/>
<path class="st45" d="M23.7,545.1L13,546.7c-2.1-2-2.9-5-2-7.7l0.2-0.5l7.5-1.7L23.7,545.1z"/>
<path class="st63" d="M16.3,550.2l-3.3,6.2l0.7,11.5c0.1,1.2-0.5,2.3-1.4,3l-1.4,1c-0.5,0.4-1.3,0.3-1.7-0.2
	c-0.1-0.1-0.2-0.3-0.2-0.5l-8.9-31.3c-0.3-1.1,0.3-2.2,1.4-2.5h0.1l10.2-2.2v4.2c-0.1,1.9,0.7,3.8,2.1,5.1l1.6,1.5
	C16.7,547.1,17,548.8,16.3,550.2z"/>
<path class="st45" d="M92.9,607.9l-3.6,6.9c-2.9-0.1-7.3-1.7-8.4-4.3l-0.2-0.5l5-7.5L92.9,607.9L92.9,607.9z"/>
<path class="st63" d="M93.2,616.6l1.2,6.9l7.6,8.7c0.8,0.9,1,2.2,0.7,3.3l-0.5,1.7c-0.2,0.6-0.9,1-1.5,0.8c-0.1,0-0.3-0.1-0.4-0.2
	l-26.2-19.5c-0.9-0.7-1-1.9-0.4-2.8l0.1-0.1l6.7-8l2.5,3.4c1.1,1.5,2.9,2.5,4.8,2.7l2.2,0.2C91.6,613.8,92.9,615,93.2,616.6
	L93.2,616.6z"/>
<path class="st46" d="M203.8,283.9l-0.5,23.6c-0.3,5.4-4.8,9.5-10.2,9.3h-3.3l-5.1,15.4l-22.6-6.7l14.4-43.5L203.8,283.9
	L203.8,283.9z"/>
<path class="st51" d="M189.6,283.5c0,0,4.9,2,13,1.5s4-8.8,4-8.8s-3.6,1.8-14-0.6c-7-1.6-8.7-3-13.5-1.3c-6.5,2.3-6.2,12.3-6.2,12.3
	l-4.1,18.4l6.2,4.3c0,0,1.8-13.7,2.3-18c1.6-1.8,3-1.7,4.1-1.1s1.7,1.9,1.5,3.1l-2.6,20.2c0,0,14.9,7.4,19,6.7s4-16.5,4-16.5
	c-3.1-0.7-6.4,0-9,1.9c-3.9,3.1-7.8-0.9-7.8-0.9L189.6,283.5z"/>
<path class="st64" d="M179.2,415.8c0,0,12.1,26.1-15.1,93.3S95.2,611,95.2,611l-16.5-6.8c0,0,61.6-73,54.2-141.3
	c0,0-36.9,60.8-111.1,88.4l-7.3-19.2c0,0,60.2-33.5,86.1-95.7c5.1-12.3,9.8-17.7,11.2-33.3L179.2,415.8L179.2,415.8z"/>
<g>
	<path class="st34" d="M398.7,591.5c0.8-2,1-4.3,1-6.6c0-2.3-0.5-4.6-1-6.6l9.6-13c1.8-2.6,1.3-6.1-1.3-8.2
		c-2.6-1.8-6.2-1.3-8.3,1.3l-7.5,10.2c-3.4-2.3-7.2-3.6-11.6-3.6s-8.5,1.3-11.6,3.8l-7.5-10.2c-1.8-2.6-5.7-3.1-8.3-1.3
		c-2.6,1.8-3.1,5.6-1.3,8.2l9.6,13c-0.8,2-1,4.3-1,6.6s0.5,4.6,1,6.6l-9.8,12.8c-1.8,2.6-1.3,6.1,1.3,8.2c1,0.8,2.3,1,3.4,1
		c1.8,0,3.6-0.8,4.6-2.3l7.5-10.2c3.4,2.3,7.5,3.8,11.6,3.8c4.4,0,8.5-1.3,11.6-3.8l7.5,10.2c1,1.5,2.8,2.3,4.6,2.3
		c1.3,0,2.3-0.3,3.4-1c2.6-1.8,3.1-5.6,1.3-8.2L398.7,591.5z M386.1,594c-1.8,1.3-4.1,2-6.5,2c-2.3,0-4.6-0.8-6.5-2
		c-2.8-2-4.9-5.4-4.9-9.2s1.8-7.2,4.9-9.2c1.8-1.3,4.1-2,6.5-2c2.3,0,4.6,0.8,6.5,2c2.8,2,4.9,5.4,4.9,9.2S388.9,592,386.1,594z"/>
	<path class="st34" d="M385.6,584.8c0,2-1,3.8-2.6,4.9c-1,0.8-2.1,1-3.4,1s-2.3-0.5-3.4-1c-1.6-1-2.6-2.8-2.6-4.9c0-2,1-3.6,2.6-4.9
		c1-0.8,2.1-1,3.4-1s2.3,0.5,3.4,1C384.5,581.2,385.6,583,385.6,584.8z"/>
</g>
<path class="st65" d="M138.1,539c-0.1,0.3-3.5-1.2-7.8-2.4s-8-1.7-7.9-2s3.8-0.3,8.2,0.9C135,536.7,138.2,538.7,138.1,539z
	 M142.4,534.4c0,0.1-1,0.5-2.7,0.6c-4.5,0.3-9-0.9-12.7-3.6c-1.4-1-2.1-1.9-2-2s3.4,2.5,8.3,3.8S142.4,534.1,142.4,534.4
	L142.4,534.4z M84,502.5c-0.2,0.2-2.4-2.3-3.4-6.2s-0.3-7.2,0-7.1s0.1,3.2,1.1,6.8S84.3,502.3,84,502.5L84,502.5z M81.8,503.6
	c-0.2,0-0.1-0.7-0.7-1.5s-1.5-2-2.4-3.3s-3.6-4.6-3.3-4.8s2.2,1.5,4.2,4.1c0.9,1.1,1.6,2.3,2.2,3.6C82.3,502.9,82,503.6,81.8,503.6
	L81.8,503.6z M145.9,474.2c0,0.1-1.8-0.5-4-2.4c-2.7-2.5-5.3-5.2-7.6-8.1l-7.1-8.4c-1.8-2.2-2.8-3.6-2.7-3.7s1.4,1.1,3.3,3.2
	l7.3,8.2c2.8,3.2,5.2,6.3,7.2,8.2S146,474.1,145.9,474.2L145.9,474.2z"/>
<path class="st11" d="M136.2,329.2l-28,85.4l75.8,28.2l12.6-68.8c0,0,21.7,48.4,43,40.8s30.2-20.1,30.2-20.1l-5.8-9.6
	c0,0-23.9,19.1-32.4,6.6c-9.6-14.1-24.4-61.5-53.9-68.6C158,318.4,145.2,312.7,136.2,329.2L136.2,329.2z"/>
<linearGradient id="SVGID_20_" gradientUnits="userSpaceOnUse" x1="146.4431" y1="-363.6149" x2="144.8132" y2="-359.3549" gradientTransform="matrix(1 0 0 1 0 792)">
	<stop  offset="0" style="stop-color:#000000;stop-opacity:0.3"/>
	<stop  offset="1" style="stop-color:#000000;stop-opacity:0"/>
</linearGradient>
<path class="st66" d="M109.7,415.1l-1,3l72.6,28.5l0.4-4.7L109.7,415.1z"/>
<path class="st46" d="M154.9,719.9c0,0-7.9,10.3-8.1,19.4s3.6,7.1,3.6,7.1c-0.4-2.9,0-5.8,1.3-8.4c2.1-4.4,3.7-5.7,3.7-5.7
	l-1.1,10.5c1.2-1.4,2.2-2.8,3.1-4.4c1.6-2.8,1.4-9,2.9-11.6s3.5-5.5,3.5-5.5L154.9,719.9L154.9,719.9z M366.7,621.6l2.1-4.1
	c0,0-1.2-11.3,0.9-12.9s7.9-4.1,7.9-4.1l2.6,1.4c0,0,2.8,8.1,2.5,10.4s-5.8,9-9.8,14.1L366.7,621.6L366.7,621.6z"/>
<path class="st57" d="M376.9,595.2l-4.4,20.9l3,0.3l4.2-20.7l-0.5-3.9L376.9,595.2z"/>
<path class="st67" d="M277.8,658.4c0,0,52.8,3.4,76.5-26.2l12.1-13l8.2,6.2c0,0-23.5,61.3-89.2,57.9l-2.2,3.3
	c-9.8,14.8-15.7,31.8-17.3,49.4l2.2,14.7l-70-7.4c0,0,2.7-34.4,21.5-65.3c0,0-13-7.9-59,50.1l-8.4-4.9c0,0,43.1-84.2,94.1-80.6
	L277.8,658.4L277.8,658.4z"/>
<path class="st46" d="M295.4,617.1l-2.6,22.4c-0.6,5-5.1,8.6-10.1,8l-2.9-0.4l-5,11.8l-20.9-5.9l16.9-40.3L295.4,617.1z"/>
<path class="st57" d="M267.3,644.6c0,0,9.7-0.4,12-6.4c0,0-8.4-10.1-3.8-11.7s7.9,7.2,7.9,7.2s0.1-10.5,2.2-12.3
	c0,0,14.6,6.1,15.8-3.5c0,0-2.5-5.4-11.4-9.7s-20.5,9-20.5,9L267.3,644.6z M287.3,608.2c-1.4-2.6-4.2-4.3-7.1-5.2
	c-13.2-4.5-27.5,2.5-32,15.7c-0.6,1.7-1,3.4-1.2,5.1c-0.2,1.7-0.2,3.4,0.2,5.1c1.1,4.3,4.9,7.3,8.4,10s8.5,6.6,12.3,5.6
	c0,0,0.3-16.1,6.2-23.8C277.9,615.9,282.3,611.7,287.3,608.2L287.3,608.2z"/>
<path class="st68" d="M252.8,613.7c-4-6.2-13.3-8-19.3-3.7c-3.9,2.7-6.4,7.5-10.9,9s-10.8-1.8-16-3.9c-9.2-3.8-20.4-3.1-28.2,3
	s-11.1,17.9-6.3,26.6c3.2,5.7,9.2,9.4,15.5,11.1s12.9,1.5,19.4,1c9.4-0.7,19.9-2.6,25.5-10.2c3.9-5.2,4.6-12.1,7.4-18
	c0.8-1.7,2.1-3.5,4-3.6s2.9,1,4.4,1.4c3.6,1,7.2-2.7,7.2-6.4s-2.7-6.9-5.8-8.9"/>
<path class="st48" d="M256.1,647.5c-5.1,1.3-10.2,2.6-14.9,5s-8.8,6.1-10.8,11c-0.6,1.2-0.7,2.5-0.3,3.8c0.4,0.7,0.9,1.2,1.5,1.6
	c4.7,3.2,10.9,1.9,16.4,0.5c9.1-2.3,18.4-4.7,26.4-9.7c0.6-0.4,1.2-0.9,1.1-1.6c-0.1-0.4-0.4-0.8-0.7-1
	C270.2,653.4,261.1,650.6,256.1,647.5"/>
<path class="st69" d="M274.8,660.6l-0.7,0.6l-2.1,1.6l-1.6,1.1l-1.9,1.2l-2.2,1.4l-2.6,1.4c-4.3,2.3-8.9,4-13.6,5.1
	c-2.8,0.6-5.7,1-8.6,1.1c-3.1,0-6.2-0.3-9.2-1.1c-1.5-0.4-3.1-0.9-4.5-1.6c-0.8-0.4-1.4-0.9-2-1.5c-0.6-0.7-0.9-1.5-0.9-2.4
	c0.1-1.6,0.7-3.1,1.7-4.3c0.8-1.2,1.7-2.3,2.6-3.4c1.8-1.9,3.9-3.5,6.2-4.8c2.1-1.3,4.1-2.3,6-3.2c3.7-1.8,6.8-3.1,8.9-3.9l2.5-1
	l0.9-0.3l-0.8,0.5l-2.4,1.1c-2.1,1-5.1,2.4-8.8,4.2c-1.8,0.9-3.8,2-5.9,3.3c-2.2,1.3-4.2,2.9-5.9,4.7c-0.9,1.1-1.7,2.2-2.5,3.3
	c-0.9,1-1.4,2.3-1.5,3.7c0.2,1.4,1.1,2.5,2.4,3c1.4,0.7,2.8,1.2,4.3,1.6c2.9,0.8,5.9,1.1,8.9,1.1c2.8-0.1,5.6-0.4,8.4-1
	c4.7-1,9.2-2.6,13.5-4.8l2.6-1.3l2.3-1.3l2-1.1l1.6-1l2.3-1.4L274.8,660.6L274.8,660.6z M273.2,665.2c0,0.1-1,0.2-2.7,0.9
	c-2.4,1-4.6,2.4-6.5,4.2c-2.8,2.7-5.4,5.6-7.7,8.7c-1.4,1.8-3,3.6-4.6,5.2c-1.8,1.8-3.8,3.3-6.1,4.4c-2.5,1.2-5.2,1.8-8,1.8
	c-1.3,0.1-2.6,0-3.9-0.2c-1.3-0.2-2.5-0.7-3.5-1.6c-0.9-0.9-1.4-2.1-1.4-3.4c-0.1-1.1,0.1-2.3,0.6-3.3c0.8-1.7,2-3.3,3.3-4.6
	l0.4,0.5c-0.7,0.4-1.6,0.3-2.3-0.1c-0.6-0.3-1-0.8-1.3-1.4c-0.4-1-0.2-2.1,0.4-3c0.3-0.5,0.8-1,1.3-1.3l0.6-0.3
	c-0.6,0.5-1.2,1.1-1.6,1.8c-0.5,0.8-0.6,1.8-0.2,2.6c0.2,0.5,0.6,0.9,1.1,1.1c0.5,0.3,1.2,0.3,1.7,0l1.7-1l-1.3,1.5
	c-1.2,1.3-2.2,2.9-3,4.5c-0.4,0.9-0.6,1.9-0.5,2.9c0,1.1,0.5,2,1.2,2.8c0.8,0.7,1.9,1.2,3,1.3c1.2,0.2,2.5,0.2,3.7,0.1
	c2.6,0,5.2-0.6,7.6-1.7c2.2-1.1,4.2-2.5,5.9-4.2c1.6-1.6,3.2-3.3,4.6-5.1c2.4-3.1,5-6,7.9-8.7c2-1.8,4.4-3.1,6.9-4l1.2-0.3l0.9-0.2
	L273.2,665.2L273.2,665.2z"/>
<path class="st70" d="M234.3,691.1c0,0-10,13.1,5,9s27-33.7,27-33.7S247.8,693.7,234.3,691.1L234.3,691.1z"/>
<linearGradient id="SVGID_21_" gradientUnits="userSpaceOnUse" x1="81.5145" y1="280.5871" x2="79.7645" y2="284.6771" gradientTransform="matrix(0.9553 -0.2957 0.2957 0.9553 71.7779 502.7785)">
	<stop  offset="0" style="stop-color:#000000;stop-opacity:0.2"/>
	<stop  offset="1" style="stop-color:#000000;stop-opacity:0"/>
</linearGradient>
<path class="st71" d="M198.1,743.3l-1.6,4.3l71.3,7.2l-0.1-4.2L198.1,743.3z"/>
</svg>
