<svg xmlns="http://www.w3.org/2000/svg" xmlns:xlink="http://www.w3.org/1999/xlink" viewBox="0 0 2000 1807.69"><defs><linearGradient id="a" x1="398.66" y1="992.52" x2="1296.11" y2="992.52" gradientUnits="userSpaceOnUse"><stop offset="0.5" stop-color="#faeeff"/><stop offset="0.5" stop-color="#f3d7ff"/><stop offset="0.5" stop-color="#f0cfff"/></linearGradient></defs><title>ML_LCO</title><path d="M1185.83,208.72c-4.76-14.16-42.78-15.11-86.52-3.77-42.78,12.28-75.1,34-71.3,48.16,4.76,14.17,42.78,16.06,86.51,3.78,42.79-12.27,75.11-34,71.31-48.17Z" fill="#ffd061" fill-rule="evenodd"/><path d="M1193.43,212.5c-4.75-17.94-53.24-20.77-107.43-4.72L1105,272c54.19-15.12,94.12-42.51,88.41-59.51Z" fill="#e51eb6" fill-rule="evenodd"/><path d="M1056.53,441.06c20,12.28,123.59,38.72,153.07,38.72-39.93-122.77,64.64-213.44,4.75-271.06-120.74-116.16-152.11,162.45-157.82,232.34Z" fill="#e2defc" fill-rule="evenodd"/><path d="M1212.44,240.84c-10.45-10.39-45.63,4.72-78.9,34-34.23,30.22-53.24,63.28-43.73,73.66,9.5,11.34,45.63-3.77,78.9-33.05,33.28-30.22,53.24-63.28,43.73-74.61Z" fill="#ffd061" fill-rule="evenodd"/><path d="M1222.9,231.39c-12.36-13.22-57,5.67-98.87,42.5L1168.71,324c41.83-36.83,66.55-78.39,54.19-92.56Z" fill="#e51eb6" fill-rule="evenodd"/><path d="M1171.57,52c-5.71,4.72-15.21,34-17.11,42.5-1.91,12.27-10.46,46.27,7.6,49.11,10.46,1.89,5.71,1.89,1.9,12.28-2.85,8.49-7.6,21.72-11.41,31.16-1.9,10.39,41.83,23.62,49.44,16.06,0-8.5,14.26-43.45,18.06-52.89,8.56-18.89,26.62-57.61,17.11-75.56-10.45-20.78-43.73-31.17-65.59-22.66Z" fill="#ffd061" fill-rule="evenodd"/><path d="M1167.77,145.45c1.9.94-1,3.77-3.81,10.39,0,1.88-1,3.77-1,6.61,9.51,2.83,38-4.73,32.32-8.5-3.8-2.83-8.55-3.78-13.31-5.67l-14.25-2.83Z" fill="#c92" fill-rule="evenodd"/><path d="M1207.69,94.45c-2.85-10.39-14.26-17-22.81-21.73-14.26-7.55-32.33-27.38-29.48-45.33,4.76-26.44,27.58-10.39,39,0,9.51,9.44,13.31,10.39,26.62,12.28,12.36.94,20.92.94,29.47,9.44,11.41,10.39,18.07,33.06,15.21,48.17-3.8,19.83-6.65,26.44-19,43.44-3.8,5.67-20.92,17-28.52,13.23-4.75-1.89,25.67-51.95-2.85-38.72-19,8.49-3.8-3.78-7.61-20.78Z" fill="#3a3238" fill-rule="evenodd"/><polygon points="1096.46 352.28 1017.55 306.01 1017.55 283.34 1109.77 308.84 1096.46 352.28" fill="#ffd061" fill-rule="evenodd"/><path d="M1020.41,285.23a208.61,208.61,0,0,0-22.82-6.62c-4.75,6.62-20,5.67-29.47-1.88,1,18.89,7.61,28.33,30.42,17.94,7.61,4.72,15.21,9.44,23.77,14.17-.95-7.56-.95-16.06-1.9-23.61Z" fill="#ffd061" fill-rule="evenodd"/><path d="M1026.11,182.28c-1.9-8.5-4.75-34.94-6.65-42.5,7.6-3.78,8.55-19.83.95-30.22,20,1.89,29.47,9.44,17.11,32.11,3.8,8.5,8.55,17,12.36,25.5-8.56-.94-15.21,16.05-23.77,15.11Z" fill="#ffd061" fill-rule="evenodd"/><polygon points="1028.01 256.89 1024.21 166.23 1043.23 153.94 1070.79 219.11 1028.01 256.89" fill="#ffd061" fill-rule="evenodd"/><path d="M877.8,58.56c-7.6,4.72-14.25,11.33-20,17l-39-18.89-24.72,51.94,37.08,18c-1.9,9.44-1.9,17.94-1.9,27.39l-39,13.22L808.4,222l38-13.23c5.71,8.51,11.41,16.06,19,21.73l-18.07,35.89,52.29,24.55,17.11-34a103.48,103.48,0,0,0,29.47,1.89l12.36,35.89,55.14-17.94-12.36-35.89c8.56-5.67,16.16-12.28,21.87-19.83l35.18,17,24.71-51.94-35.17-17c1.9-9.45,1.9-18.89,1.9-29.28L1087,127.5l-18.07-54.78-39,13.23c-5.71-6.61-12.37-14.17-19-19.84l19-37.77L977.63,3.78l-19,37.78c-8.55-1-17.11-1.89-25.67-1L918.68,0,863.55,17.94Zm44.69,42.5c-26.62,8.5-41.83,38.72-32.33,65.17a52.07,52.07,0,0,0,66.55,32.11c26.62-8.5,40.88-37.78,32.32-65.17-9.5-27.39-39-41.56-66.54-32.11Z" fill="#21007e" fill-rule="evenodd"/><path d="M912,68a86.19,86.19,0,0,0-48.48,42.5c-9.51,18.89-11.41,41.56-4.76,63.28A86.08,86.08,0,0,0,901.57,222c19,9.44,41.83,11.33,63.7,4.72,22.81-7.56,39-23.61,48.48-42.5s11.41-41.56,4.76-63.28c-7.61-22.67-23.77-38.72-42.78-48.17S933.9,61.39,912,68Zm-42.78,45.33a73,73,0,0,1,44.68-38.72,71.28,71.28,0,0,1,58.94,3.78,72.83,72.83,0,0,1,39,44.39c7.61,19.83,5.7,40.61-3.8,58.56a73.06,73.06,0,0,1-44.68,38.72,71.27,71.27,0,0,1-59-3.78,72.84,72.84,0,0,1-39-44.39c-7.61-19.83-5.71-40.61,3.8-58.56Z" fill="#fdf5ff"/><path d="M1268.54,754.62c-10.46-2.83-17.12-13.22-13.31-23.61,2.85-10.39,13.31-17,23.76-13.22,221.52,65.17,192,259.73,161.62,461.84-33.28,219.11-68.45,449.56,254.79,506.23,10.45,1.88,18.06,12.27,16.15,22.67s-12.35,17.94-23.76,16C1327.48,1661.3,1365.51,1411,1401.63,1174c27.57-185.11,55.14-362.67-133.09-419.34Z" fill="#e52e62"/><path d="M944.35,943.51C933.9,939.74,928.19,929.35,932,919c2.85-10.39,14.26-16.06,24.72-13.22,232.92,73.66,251.93,233.28,271,391.94,22.81,186.07,44.68,370.23,464.88,388.18,10.46,0,19,9.44,19,19.83-.94,11.33-9.5,19.84-20.91,18.89-453.48-18.89-478.2-220.06-502-422.18-18.06-146.38-35.18-292.77-244.33-358.89Z" fill="#e52e62"/><path d="M431.93,717.79c10.46-3.78,21.87,2.83,24.72,13.22a18.87,18.87,0,0,1-13.31,23.61C254.15,811.29,281.73,988.85,310.25,1174,346.37,1411,384.4,1661.3,23.14,1724.58c-10.46,1.89-20.92-5.67-22.82-16a19.32,19.32,0,0,1,16.16-22.67c322.29-56.67,288.06-287.12,253.84-506.23C239.9,977.52,210.42,783,431.93,717.79Z" fill="#e52e62"/><path d="M755.16,905.74c10.46-2.84,20.92,2.83,24.72,13.22,2.86,10.39-2.85,20.78-13.31,24.55C558.37,1009.63,540.31,1156,523.2,1302.4c-24.72,202.12-48.49,403.29-502.91,422.18-10.46,1-20-7.56-20-18.89a18.44,18.44,0,0,1,18.06-19.83c421.16-17.95,443-202.11,464.89-388.18,19-158.66,38-318.28,271.89-391.94Z" fill="#e52e62"/><path d="M921.53,1640.52c442.07,0,800.48,37.78,800.48,84.06,0,45.33-358.41,83.11-800.48,83.11s-800.47-37.78-800.47-83.11c0-46.28,358.41-84.06,800.47-84.06Z" fill="#262626" fill-rule="evenodd"/><path d="M847.38,321.12c-100.77-3.78-215.8,20.78-321.33,112.39-270.94,234.22-27.57,677.17-1.9,720.62,24.72,43.44,116.93,191.72-52.29,493,0,0,138.8,131.28,375.52,102.95,235.77,28.33,374.57-102.95,374.57-102.95-168.27-301.28-76-449.56-51.33-493,25.67-43.45,269-486.4-1.91-720.62C1063.19,341.9,948.15,317.34,847.38,321.12Z" fill="#e51eb6" fill-rule="evenodd"/><path d="M726.08,300.89a97.55,97.55,0,0,1,27.57,10.39l33.28-33,44.68,44.39-32.33,33.05a138.52,138.52,0,0,1,11.41,27.39h46.59v63.28H812.59a155.33,155.33,0,0,1-11.41,29.28l30.43,30.22-44.68,45.34L756.5,521c-9.5,5.67-19,10.39-30.42,13.22v41.56H662.39V534.17A123.31,123.31,0,0,1,632,521l-29.48,30.23-45.63-45.34,31.37-30.22a85.43,85.43,0,0,1-11.41-29.28H532.14V383.06h45.63c2.85-9.44,7.61-18.89,12.36-27.39l-33.27-33.05,45.63-44.39,33.28,33c8.55-4.72,17.11-7.55,26.62-10.39V253.67h63.69ZM694.71,360.4c31.37,0,57,25.5,57,56.66a57.23,57.23,0,0,1-57,57.62c-32.32,0-58-25.51-58-57.62,0-31.16,25.67-56.66,58-56.66Z" fill="#21007e" fill-rule="evenodd"/><path d="M695.71,325.62c25.67,0,48.48,10.38,65.6,26.44,16.16,17,26.62,39.67,26.62,65.17s-10.46,48.17-26.62,65.17c-17.12,17-39.93,27.39-65.6,27.39s-48.49-10.39-65.6-27.39-27.57-39.67-27.57-65.17,10.46-48.17,27.57-65.17c17.11-16.06,39.93-26.44,65.6-26.44Zm60.84,32.11c-16.16-16.06-37.08-25.5-60.84-25.5s-45.63,9.44-60.84,25.5a83.12,83.12,0,0,0-24.72,59.5,85.38,85.38,0,0,0,24.72,60.45c15.21,15.1,37.07,24.55,60.84,24.55s44.68-9.45,60.84-24.55a85.42,85.42,0,0,0,24.72-60.45,83.16,83.16,0,0,0-24.72-59.5Z" fill="#fff"/><path d="M1103.12,459c7.6,4.72,13.31,10.39,19,16.05l35.18-17.94,23.76,48.17-35.17,17a102.29,102.29,0,0,1,2.85,24.55l36.13,12.28-17.11,50-35.18-11.33a86.33,86.33,0,0,1-17.11,19.84l16.16,33.05-48.49,22.67-15.21-31.17a88.64,88.64,0,0,1-27.57,1.89L1029,677.18l-50.38-17,11.41-33c-7.61-5.67-15.22-11.33-20.92-18l-32.32,15.12-22.82-47.23,32.32-16c-1.9-8.5-1.9-18-1-26.45l-35.17-12.27,17.11-50.06,36.13,12.28a105.8,105.8,0,0,1,17.11-18.89l-17.11-34L1010.9,408,1029,443.89c7.61-1.88,16.17-1.88,23.77-1.88L1066,404.23l50.39,17Zm-40.88,38.72c24.72,8.5,38,35.89,29.47,60.45-8.56,25.5-35.18,38.72-60.85,30.22-24.71-8.5-38-35.89-29.47-60.45,8.56-25.5,35.18-38.72,60.85-30.22Z" fill="#21007e" fill-rule="evenodd"/><path d="M1072.69,468.45c20,6.61,35.18,20.78,44.69,38.73,8.55,17,10.45,38.72,3.8,58.55-7.61,19.83-21.87,35.89-39.93,44.39-17.11,8.5-39,10.39-58.94,3.78a78.84,78.84,0,0,1-44.68-38.72,80,80,0,0,1-3.81-59.51c6.66-19.83,21.87-34.94,39-43.44,18.06-9.44,39-11.33,59.89-3.78Zm39,40.61c-7.6-16.05-22.81-29.28-40.88-35.89a69.51,69.51,0,0,0-55.14,3.78,76.09,76.09,0,0,0-36.12,40.61,68.2,68.2,0,0,0,3.8,54.78c7.61,16.06,21.87,29.28,40.88,35.89s38,4.72,55.14-3.78c16.16-7.55,29.47-21.72,36.13-40.61s4.75-37.78-3.81-54.78Z" fill="#fdf5ff"/><path d="M826.47,604.45a97.61,97.61,0,0,1,23.77,5.67L875,579,916.78,612,893,642.23A165.39,165.39,0,0,1,906.32,664l38-4.72L951,711.18l-37.08,4.72a83.33,83.33,0,0,1-6.65,26.44l28.52,21.73-32.33,41.55L875.9,783.9a105,105,0,0,1-24.72,14.17L855.94,833l-53.24,6.61-3.8-34.94c-9.51-.95-18.06-3.78-26.62-7.56l-21.87,28.33L708.58,792.4l21.87-28.33a92.81,92.81,0,0,1-12.36-23.62L681,745.18l-6.65-51.95,38-4.72c1-8.5,3.8-17,6.65-24.56l-30.42-23.61,32.32-41.55,32.32,23.61c5.71-4.72,13.31-8.5,20.92-11.33l-4.75-39.67,52.28-6.61Zm-20,52.89c26.62-3.77,50.39,15.12,54.19,41.56,2.86,25.5-15.21,50.06-41.83,52.89a46.76,46.76,0,0,1-53.24-41.56c-3.8-25.5,15.22-50.06,40.88-52.89Z" fill="#21007e" fill-rule="evenodd"/><path d="M802.7,626.18c20.92-2.84,41.83,2.83,57,15.11a76.26,76.26,0,0,1,29.47,51C892.07,714,886.36,733.84,874,749c-12.36,16-30.42,27.39-51.34,29.27-21.86,2.84-41.82-2.83-58-15.11-15.21-12.28-26.62-30.22-29.47-51-1.9-21.72,3.81-41.55,16.16-57.61,12.36-15.11,30.42-26.44,51.34-28.33ZM856.89,646c-15.21-11.34-33.27-17-53.24-14.17-20,1.89-36.12,12.28-47.53,26.45S739,691.34,740.91,711.18c2.85,19.83,13.31,35.89,27.56,47.22a69.6,69.6,0,0,0,53.24,14.17c19-1.89,36.13-12.28,47.54-26.45,11.41-15.11,17.11-33,14.26-52.89-1.9-19.83-12.36-35.89-26.62-47.22Z" fill="#fdf5ff"/><path d="M851.18,1488.47h-7.6c-246.23-5.67-444.92-307.9-444.92-680,0-693.23,163.52-15.11,448.72-10.39,284.26-4.72,448.73-682.84,448.73,10.39,0,372.11-198.7,674.34-444.93,680Z" fill-rule="evenodd" fill="url(#a)"/><path d="M851.18,1287.29a20.2,20.2,0,0,0-5.7,3.78,20.2,20.2,0,0,0-5.7-3.78c-23.77-21.72-78,25.51-107.43,32.12H958.61c-29.47-6.61-83.66-53.84-107.43-32.12Z" fill="#ff5f94" fill-rule="evenodd"/><path d="M958.61,1319.41c-36.12,31.16-78.9,50.06-113.13,45.33-34.22,4.73-77-14.17-113.13-45.33Z" fill="#e52e62" fill-rule="evenodd"/><path d="M763.72,978.46c-22.81,8.5-56.09,13.22-91.26,14.17-37.08.94-76.06-2.84-102.68-10.39h-1.9V971.85h3.8c25.67,7.55,63.7,10.39,100.78,10.39,34.22-1,66.55-5.67,88.41-14.17Z" fill="#a70ee5"/><path d="M932,978.46c22.82,8.5,57,13.22,91.27,14.17,38,.94,77-2.84,102.67-10.39h1.9V971.85H1124c-25.67,7.55-63.69,10.39-100.77,10.39-33.27-1-66.55-5.67-88.42-14.17Z" fill="#a70ee5"/><path d="M840.73,958.63c1.9-2.84,4.75-2.84,7.6-1.9a7.33,7.33,0,0,1,1.91,7.56c-1,1-14.27,79.34-23.77,139.78-5.71,35.89-9.51,65.17-8.56,68,7.61,18.89,38,18,58,18h7.61a4.47,4.47,0,0,1,4.75,4.72c0,2.83-1.9,5.67-4.75,5.67h-6.65c-23.77,0-59,.94-68.46-24.56-1.9-4.72,1.91-35.89,7.61-72.72,9.51-62.34,23.77-142.62,24.72-144.5Z" fill="#a70ee5"/><path d="M235.14,1053.07h0c8.56,0,16.16,6.61,17.11,14.17L263.66,1123H434.79l-11.41-55.72c-1.9-7.56,2.85-14.17,11.41-14.17h0c7.6,0,15.21,6.61,17.11,14.17l130.24,642.23c1.9,7.55-3.8,14.16-11.41,14.16h0c-7.6,0-15.21-6.61-17.11-14.16l-11.41-58.56H371.09l12.36,58.56c.95,7.55-3.8,14.16-11.41,14.16h0c-8.56,0-16.16-6.61-17.11-14.16l-131.2-642.23c-.95-7.56,3.81-14.17,11.41-14.17Zm206.3,102H270.32l14.26,68H454.75Zm20,100.11H291.23l13.31,68H474.71Zm20,99.17H311.19l13.31,68H495.63Zm20.91,100.12H331.16l13.31,65.16H514.64Zm19,97.27H351.13l13.31,68H535.56Z" fill="#9a8af9" fill-rule="evenodd"/><polygon points="405.31 1054.02 366.33 1054.02 354.93 1103.13 393.9 1103.13 405.31 1054.02" fill="#ffcaa6" fill-rule="evenodd"/><path d="M369.19,1087.07c23.77,15.11,26.62-11.33,35.17-2.83,17.12,16,47.54,26.44,71.3,30.22,0,3.78,2.86,15.11-2.85,15.11-16.16,0-106.47-.94-119.78-10.39,0,0-9.51-48.17,16.16-32.11Z" fill="#21007e" fill-rule="evenodd"/><path d="M401.51,620.51c37.08,152.06,114.08,279.56,12.36,453.34H357.78C465.21,867,280.77,710.23,291.23,647c34.23,2.83,76.06-29.28,110.28-26.45Z" fill="#0269b3" fill-rule="evenodd"/><polygon points="295.04 1056.85 257.01 1056.85 245.6 1105.96 283.63 1105.96 295.04 1056.85" fill="#ffcaa6" fill-rule="evenodd"/><path d="M360.63,604.45c37.08,152.06,42.78,295.62-58,469.4h-57C354,867,283.63,730.07,272.22,694.18c34.22,3.78,54.19-92.56,88.41-89.73Z" fill="#0079cf" fill-rule="evenodd"/><path d="M258,1090.85c23.77,14.17,25.67-12.28,34.22-4.73,18.07,16.06,47.54,25.51,72.26,28.34,0,3.78,2.85,15.11-3.81,15.11-16.16,1-105.52,2.83-119.79-6.61,0,0-9.5-47.22,17.12-32.11Z" fill="#21007e" fill-rule="evenodd"/><path d="M435.73,1053.07h0c-7.6,0-15.21,6.61-17.11,14.17L407.21,1123H238.94l11.41-55.72c1.9-7.56-2.85-14.17-11.41-14.17h0c-7.6,0-15.21,6.61-17.11,14.17L91.59,1709.47c-1.9,7.55,3.8,14.16,11.4,14.16h0c7.61,0,15.22-6.61,17.12-14.16l11.4-58.56H300.74l-12.36,58.56c-1.9,7.55,3.8,14.16,11.41,14.16h0c7.6,0,15.21-6.61,17.11-14.16l130.24-642.23c1.9-7.56-2.85-14.17-11.41-14.17Zm-202.49,102H401.51l-14.26,68H219Zm-20.92,100.11H380.6l-13.31,68H199Zm-20,99.17H360.63l-14.26,68H178.1Zm-20,100.12H340.67l-13.31,65.16H159.09Zm-20,97.27H320.7l-14.26,68H138.17Z" fill="#d8c0ff" fill-rule="evenodd"/><path d="M1516.66,1003c18.07,3.77,22.82-3.78,28.52-18.89,7.61-22.67-11.4-69.89-27.56-62.34-10.46,12.28-23.77,75.56-1,81.23Z" fill="#ffdb92" fill-rule="evenodd"/><path d="M1544.24,1449.74c10.45,83.11,31.37,165.28,31.37,248.39H1587c22.82-87.83-12.35-185.11,7.61-262.55-17.11,3.78-32.32,10.38-50.38,14.16Z" fill="#ffdb92" fill-rule="evenodd"/><path d="M1588,1723.63c-2.86-17,6.65-23.6,1.9-36.83-3.8,0-12.36-1.89-16.17,4.72-16.15,25.5-53.23,17-58,32.11h39c11.41,0,16.16-13.22,24.72-17,1.9,5.67,1.9,10.39,1.9,17Z" fill="#ef9bfa" fill-rule="evenodd"/><path d="M1504.31,1449.74c9.5,83.11,20,165.28,30.42,248.39h11.41c22.81-87.83-15.21-184.16,10.45-259.72-18.06,3.78-35.17,7.55-52.28,11.33Z" fill="#ffdb92" fill-rule="evenodd"/><path d="M1500.51,1213.63c-39.93,55.72,0,162.44,0,244.61h95.06c-11.41-129.39,76.06-165.28,9.51-244.61Z" fill="#9e66ff" fill-rule="evenodd"/><path d="M1497.65,1216.46c-2.85-25.5,1.9-57.61-1-83.11-10.46-7.56-26.62-18.89-25.67-36.84,13.31-23.61,23.77-53.83,29.48-79.33,31.36,1,63.69,1.89,95.06,2.83,34.23,51-24.72,118.06,9.51,193.62-35.18.94-72.25,1.89-107.43,2.83Z" fill="#ef9bfa" fill-rule="evenodd"/><path d="M1512.86,909.51c-20,20.78,26.62,32.12-4.75,82.17-31.37,49.11,42.78,40.61,26.62,87.84-12.36,33-7.61,57.6,30.42,63.28,35.17,5.66,44.68-6.62,65.6-30.23,30.42-34.94-11.41-73.67-8.56-94.44,8.56-66.12-28.52-23.62-28.52-81.23.95-52.89-61.8-47.22-80.81-27.39Z" fill="#a3c3ff" fill-rule="evenodd"/><path d="M1547.09,1723.63c-2.85-17,6.65-23.6,1.9-36.83-2.85,0-12.36-1.89-16.16,4.72-16.17,25.5-53.24,17-58,32.11h39c11.41,0,17.12-13.22,24.72-17,1.9,5.67,1.9,10.39,1.9,17Z" fill="#e877fc" fill-rule="evenodd"/><polygon points="1499.55 1012.46 1434.91 1022.85 1413.04 1041.74 1423.5 1063.46 1513.81 1079.52 1499.55 1012.46" fill="#ef9bfa" fill-rule="evenodd"/><path d="M1412.09,935l22.82,87.84-11.41,40.61-16.17-11.33a18.54,18.54,0,0,1-8.55-16.06L1396.88,935Z" fill="#ffdb92" fill-rule="evenodd"/><path d="M1413,938.79l8.56-18.89h0l-.95-32.11-1-.94s-1-1-1,0h-1c-1,0-1.9,0-1.9.94l-1.9,16.06-1,.94c-2.85-25.5-3.8-20.78-9.51-18.89l-9.5,4.72c-3.81,1-5.71,4.72-5.71,8.5V911.4l8.56,27.39Z" fill="#ffdb92" fill-rule="evenodd"/><path d="M307.39,418.39c11.41-10.38,46.59,8.51,78,42.51,32.32,33.05,49.44,68.94,38,79.33s-45.63-8.5-78-41.56c-32.32-34-49.44-69.89-38-80.28Z" fill="#21007e" fill-rule="evenodd"/><path d="M513.69,547.79c8.56-1.89,35.18-9.45,43.74-11.34,0-2.83,11.4,0,16.15-.94,3.81,0-2.85-4.73,1-4.73,4.75-1.88,19,0,23.76-1.88-10.45-17-35.17-29.28-50.38-7.56H518.45c4.75,6.61-9.51,18.89-4.76,26.45Z" fill="#ffcaa6" fill-rule="evenodd"/><polygon points="377.75 577.06 523.2 553.45 527 520.4 386.3 521.34 377.75 577.06" fill="#21007e" fill-rule="evenodd"/><path d="M423.38,668.68c-20,13.22-126.44,46.27-156.87,48.17,36.13-128.45-75.1-214.4-16.16-277.68,118.84-125.61,163.52,157.73,173,229.51Z" fill="#cdc7f9" fill-rule="evenodd"/><path d="M263.66,449.56c15.21.95,26.62,38.73,25.67,85-1.9,46.28-15.21,84.06-30.42,83.12-15.21,0-26.62-37.78-25.67-84.06.95-47.22,15.21-84.06,30.42-84.06Z" fill="#21007e" fill-rule="evenodd"/><path d="M343.52,302.23c3.8,6.61,4.75,38.72,4.75,47.22-1.9,13.22-2.85,50.06-20.91,47.22-11.41-.94-7.61,0-6.66,11.34.95,9.44.95,14.16,1.9,24.55-1,11.33-47.53,12.28-53.24,2.83,1.91-9.44-.94-37.77-1.9-48.16C264.61,365.5,257,322.06,271.27,307c16.16-17.95,52.29-18.89,72.25-4.72Z" fill="#ffcaa6" fill-rule="evenodd"/><path d="M319.75,396.67c-.95.95.95,3.78.95,11.34v6.61c-10.45.94-37.07-14.17-29.47-17,4.75-1.89,9.51-.95,14.26-.95,4.76-.94,9.51,0,14.26,0Z" fill="#e8a070" fill-rule="evenodd"/><path d="M295,335.28c23.76-39.66,66.54,13.22,68.44-5.67,7.61-70.83-41.83-49.1-66.54-53.83-12.36-1.89-20.92-3.77-32.33,1.89C250.35,285.23,238,306,236.09,322.06c-1,20.78,0,28.34,6.66,48.17,2.85,6.61,16.16,22.67,24.71,21.72,4.76-.94-10.45-59.5,14.27-38.72,16.15,14.17,4.75-2.83,13.31-18Z" fill="#21007e" fill-rule="evenodd"/><polygon points="252.25 613.9 315.95 721.57 350.17 709.29 278.87 561.96 252.25 613.9" fill="#21007e" fill-rule="evenodd"/><path d="M323.56,332.45c2.85,0,5.7,1.89,7.6,4.72a23.61,23.61,0,0,1,1.9,9.45c0,3.78-.95,7.55-2.85,9.44a10,10,0,0,1-8.56,4.72c-2.85-.94-5.7-1.89-7.6-4.72a33.75,33.75,0,0,1-1.9-10.39,15.89,15.89,0,0,1,2.85-9.44c1.9-2.84,4.75-3.78,8.56-3.78Zm3.8,6.61c-1.9-.94-2.86-2.83-4.76-2.83a5.08,5.08,0,0,0-3.8,2.83,46.1,46.1,0,0,0-2.85,6.61,17.75,17.75,0,0,0,1.9,7.56,5.22,5.22,0,0,0,4.75,2.83,5.08,5.08,0,0,0,3.81-2.83,13.6,13.6,0,0,0,1.9-6.61,10,10,0,0,0-.95-7.56Z" fill="#21007e"/><path d="M349.22,334.34c2.86,0,5.71,1.89,7.61,4.72a23.59,23.59,0,0,1,1.9,9.44,15.89,15.89,0,0,1-2.85,9.45c-1.9,2.83-4.75,4.72-7.61,3.78-3.8,0-6.65-1.89-7.6-4.72-1.9-1.89-2.86-5.67-2.86-9.45a15.87,15.87,0,0,1,2.86-9.44c1.9-2.84,4.75-4.73,8.55-3.78ZM353,341a5.24,5.24,0,0,0-4.76-2.83,5.08,5.08,0,0,0-3.8,2.83,13.6,13.6,0,0,0-1.9,6.61,10,10,0,0,0,.95,7.56c1.9,1.89,2.85,2.83,4.75,2.83a5.09,5.09,0,0,0,3.81-2.83c1.9-1.89,1.9-3.78,2.85-6.62A17.7,17.7,0,0,0,353,341Z" fill="#21007e"/><path d="M315,343.78a1.81,1.81,0,0,1,.95,2.84c0,.94-.95,1.88-2.85,1.88-1.91-.94-7.61-.94-14.26-.94a85.16,85.16,0,0,1-21.87,0,10.62,10.62,0,0,0-7.61,0,11.44,11.44,0,0,0-4.75,4.72c-.95,0-.95,1-.95,2.84l-1,.94a1.76,1.76,0,0,1,0,2.83c-1.9.95-2.85,0-3.8-.94v-3.78c.95-1.89.95-3.77,1.9-4.72,1.9-1.89,3.8-4.72,6.65-5.67,3.81-.94,6.66-1.88,10.46-.94,5.71.94,14.26.94,20.92.94,6.65-.94,12.35-.94,16.16,0Z" fill="#21007e"/><path d="M1023.26,1649h238.62S1278,1386.46,1143.05,1395C1023.26,1394,1023.26,1649,1023.26,1649Z" fill="#40c184" fill-rule="evenodd"/><path d="M1054.63,1496H1241c16.17,0,29.48,13.22,29.48,30.22v113.34a29.52,29.52,0,0,1-29.48,29.28H1054.63c-17.11,0-30.42-13.22-30.42-29.28V1526.24a29.93,29.93,0,0,1,30.42-30.22Z" fill="#e4f3f5" fill-rule="evenodd"/><path d="M1067,1699.08l21.87,41.56s217.7-69,228.16-118.06-56.09-34-56.09-34Z" fill="#0035b0" fill-rule="evenodd"/><path d="M1236.21,1699.08l-20.91,41.56s-217.71-69-228.17-118.06c-11.4-49.12,56.1-34,56.1-34Z" fill="#0048f0" fill-rule="evenodd"/><path d="M1035.62,1710.41s-71.3-2.83-72.25,25.5c0,29.28,18.06,58.56,39,55.73,21.87-2.84,59.9-42.5,59.9-42.5Z" fill="#e6e6e6" fill-rule="evenodd"/><path d="M1079.35,1701.91s-102.67,15.11-97.92,34.95c5.7,20.77,10.46,45.33,30.42,39.66,20.92-4.72,82.71-45.33,82.71-45.33Z" fill="#005d8f" fill-rule="evenodd"/><rect x="1021.36" y="1724.58" width="7.61" height="32.11" fill="#fff"/><polygon points="1009 1735.91 1012.8 1729.3 1041.32 1745.36 1037.52 1751.97 1009 1735.91" fill="#fff" fill-rule="evenodd"/><rect x="1041.32" y="1715.13" width="6.66" height="33.06" fill="#fff"/><polygon points="1028.96 1726.47 1032.77 1719.86 1060.34 1736.86 1056.53 1742.52 1028.96 1726.47" fill="#fff" fill-rule="evenodd"/><path d="M1261.88,1706.63s72.26-2.83,72.26,26.45-18.07,58.56-39,55.72c-21.87-3.77-59.9-42.5-59.9-42.5Z" fill="#e6e6e6" fill-rule="evenodd"/><path d="M1218.15,1699.08s102.68,14.17,97.92,34.94c-4.75,19.84-10.46,44.39-30.42,39.67s-82.71-46.28-82.71-46.28Z" fill="#005d8f" fill-rule="evenodd"/><rect x="1268.54" y="1720.8" width="7.61" height="32.11" fill="#fff"/><polygon points="1288.5 1732.13 1284.7 1725.53 1256.18 1742.52 1259.98 1748.19 1288.5 1732.13" fill="#fff" fill-rule="evenodd"/><rect x="1249.52" y="1712.3" width="6.66" height="32.11" fill="#fff"/><polygon points="1268.54 1723.63 1265.68 1717.02 1237.16 1733.08 1240.96 1739.69 1268.54 1723.63" fill="#fff" fill-rule="evenodd"/><path d="M1143.05,1312.8c22.81,0,40.87,23.61,40.87,52.89,0,28.33-18.06,51.94-40.87,51.94s-40.88-23.61-40.88-51.94c0-29.28,18.06-52.89,40.88-52.89Z" fill="#ffcaa6" fill-rule="evenodd"/><path d="M1182,1382.69c-12.35-6.62-2.85-34-20-35-4.75-.94-15.21,7.56-26.62,2.83-21.87-10.38-8.56,30.23-40.88,27.4-14.26-1-23.77-21.73-25.67-35.9-5.7-51,15.21-26.44,21.87-37.77,14.26-27.39,30.42,0,40.88-8.5,22.82-20.78,56.09,1.88,55.14,9.44-1,2.83,34.22,7.56,15.21,35-15.21,20.77,9.51,15.11-4.76,31.16-10.45,10.39,1,17-12.35,9.45-1-1-3.81.94-2.86,1.89Z" fill="#a85211" fill-rule="evenodd"/><path d="M1172.52,1587.63v.95c0,13.22-11.41,24.55-24.72,24.55-14.26,0-25.67-11.33-25.67-24.55,0-14.17,11.41-24.56,24.72-25.5a20.65,20.65,0,0,0-.95,7.55,19,19,0,0,0,19,18.89,17.91,17.91,0,0,0,7.61-1.89Z" fill="#79c0c9" fill-rule="evenodd"/><path d="M1879.83,1671.69c-38-89.72-49.44-179.45-.95-270.12l27.56,21.73-17.11-38.73c19-30.22,44.69-59.5,78.91-89.72,31.37,69,39.93,137,23.77,203.06l-44.68,11.33,35.17,18.89c-19,49.11-52.29,97.28-102.67,143.56Z" fill="#e866ff" fill-rule="evenodd"/><path d="M1886.48,1567.8c6.65-46.28,24.72-95.39,42.78-142.61,9.51-23.62,18.07-47.22,24.72-69a8.46,8.46,0,0,0,1-4.72v-1l7.61-.94v1.89a18.32,18.32,0,0,1-1,6.61c-6.66,22.67-15.21,46.28-24.72,69.89-18.06,47.22-36.13,95.39-42.78,141.67Z" fill="#fff"/><path d="M1862.71,1690.58c41.83-98.23,55.14-197.39,1-295.62l-29.48,22.67,18.07-41.56c-20.92-33-49.44-66.11-86.52-98.22C1732.47,1353.41,1722,1428,1741,1500.74l48.48,12.28-38,20.78c20,53.83,56.09,105.78,111.23,156.78Z" fill="#755dce" fill-rule="evenodd"/><path d="M1774.3,1601.8h195.84l-15.21,159.61c-1,10.39-9.51,18.89-21.86,18.89H1811.38c-12.36,0-21.87-8.5-22.82-18.89Z" fill="#3b005e" fill-rule="evenodd"/><path d="M1778.1,1316.57c9.51,45.34,17.12,77.45,25.67,109.56,7.61,33.06,18.07,65.17,32.32,109.56,1,4.72,5.71,24.56,8.56,41.55,2.85,11.34,4.75,20.78,4.75,20.78l-6.65,5.67c0-.94-2.85-12.28-5.7-25.5-3.81-16.06-7.61-35.89-8.56-39.67-14.26-44.39-24.72-77.44-33.27-110.5-7.61-32.11-15.21-65.17-24.72-109.56Z" fill="#fff"/></svg>